<svg width="40" height="39" viewBox="0 0 40 39" fill="none" xmlns="http://www.w3.org/2000/svg">
<rect width="40" height="39" rx="19.5" fill="#F26B45"/>
<g clip-path="url(#clip0_131_4419)">
<path d="M19.5 13.3506C21.5039 13.3506 21.7412 13.3594 22.5293 13.3945C23.2617 13.4268 23.6572 13.5498 23.9209 13.6523C24.2695 13.7871 24.5215 13.9512 24.7822 14.2119C25.0459 14.4756 25.207 14.7246 25.3418 15.0732C25.4443 15.3369 25.5674 15.7354 25.5996 16.4648C25.6348 17.2559 25.6436 17.4932 25.6436 19.4941C25.6436 21.498 25.6348 21.7354 25.5996 22.5234C25.5674 23.2559 25.4443 23.6514 25.3418 23.915C25.207 24.2637 25.043 24.5156 24.7822 24.7764C24.5186 25.04 24.2695 25.2012 23.9209 25.3359C23.6572 25.4385 23.2588 25.5615 22.5293 25.5938C21.7383 25.6289 21.501 25.6377 19.5 25.6377C17.4961 25.6377 17.2588 25.6289 16.4707 25.5938C15.7383 25.5615 15.3428 25.4385 15.0791 25.3359C14.7305 25.2012 14.4785 25.0371 14.2178 24.7764C13.9541 24.5127 13.793 24.2637 13.6582 23.915C13.5557 23.6514 13.4326 23.2529 13.4004 22.5234C13.3652 21.7324 13.3564 21.4951 13.3564 19.4941C13.3564 17.4902 13.3652 17.2529 13.4004 16.4648C13.4326 15.7324 13.5557 15.3369 13.6582 15.0732C13.793 14.7246 13.957 14.4727 14.2178 14.2119C14.4814 13.9482 14.7305 13.7871 15.0791 13.6523C15.3428 13.5498 15.7412 13.4268 16.4707 13.3945C17.2588 13.3594 17.4961 13.3506 19.5 13.3506ZM19.5 12C17.4639 12 17.209 12.0088 16.4092 12.0439C15.6123 12.0791 15.0645 12.208 14.5898 12.3926C14.0947 12.5859 13.6758 12.8408 13.2598 13.2598C12.8408 13.6758 12.5859 14.0947 12.3926 14.5869C12.208 15.0645 12.0791 15.6094 12.0439 16.4062C12.0088 17.209 12 17.4639 12 19.5C12 21.5361 12.0088 21.791 12.0439 22.5908C12.0791 23.3877 12.208 23.9355 12.3926 24.4102C12.5859 24.9053 12.8408 25.3242 13.2598 25.7402C13.6758 26.1562 14.0947 26.4141 14.5869 26.6045C15.0645 26.7891 15.6094 26.918 16.4062 26.9531C17.2061 26.9883 17.4609 26.9971 19.4971 26.9971C21.5332 26.9971 21.7881 26.9883 22.5879 26.9531C23.3848 26.918 23.9326 26.7891 24.4072 26.6045C24.8994 26.4141 25.3184 26.1562 25.7344 25.7402C26.1504 25.3242 26.4082 24.9053 26.5986 24.4131C26.7832 23.9355 26.9121 23.3906 26.9473 22.5938C26.9824 21.7939 26.9912 21.5391 26.9912 19.5029C26.9912 17.4668 26.9824 17.2119 26.9473 16.4121C26.9121 15.6152 26.7832 15.0674 26.5986 14.5928C26.4141 14.0947 26.1592 13.6758 25.7402 13.2598C25.3242 12.8438 24.9053 12.5859 24.4131 12.3955C23.9355 12.2109 23.3906 12.082 22.5938 12.0469C21.791 12.0088 21.5361 12 19.5 12Z" fill="#FEF8F6"/>
<path d="M19.5 15.6475C17.373 15.6475 15.6475 17.373 15.6475 19.5C15.6475 21.627 17.373 23.3525 19.5 23.3525C21.627 23.3525 23.3525 21.627 23.3525 19.5C23.3525 17.373 21.627 15.6475 19.5 15.6475ZM19.5 21.999C18.1201 21.999 17.001 20.8799 17.001 19.5C17.001 18.1201 18.1201 17.001 19.5 17.001C20.8799 17.001 21.999 18.1201 21.999 19.5C21.999 20.8799 20.8799 21.999 19.5 21.999Z" fill="#FEF8F6"/>
<path d="M24.4043 15.4951C24.4043 15.9932 24 16.3945 23.5049 16.3945C23.0068 16.3945 22.6055 15.9902 22.6055 15.4951C22.6055 14.9971 23.0098 14.5957 23.5049 14.5957C24 14.5957 24.4043 15 24.4043 15.4951Z" fill="#FEF8F6"/>
</g>
<defs>
<clipPath id="clip0_131_4419">
<rect width="15" height="15" fill="white" transform="translate(12 12)"/>
</clipPath>
</defs>
</svg>
