<svg width="236" height="44" viewBox="0 0 236 44" fill="none" xmlns="http://www.w3.org/2000/svg">
<g clip-path="url(#clip0_43_677)">
<path d="M39.2332 0H4.76685C2.13419 0 0 2.13419 0 4.76685V39.2332C0 41.8658 2.13419 44 4.76685 44H39.2332C41.8658 44 44 41.8658 44 39.2332V4.76685C44 2.13419 41.8658 0 39.2332 0Z" fill="#F24E29"/>
<path opacity="0.6" d="M13.2345 30.7652L29.1116 14.8881" stroke="#EBE4DA" stroke-width="1.32328" stroke-miterlimit="8" stroke-linecap="round"/>
<path opacity="0.5" d="M13.2344 32.7505C14.3307 32.7505 15.2193 31.8618 15.2193 30.7656C15.2193 29.6693 14.3307 28.7807 13.2344 28.7807C12.1382 28.7807 11.2495 29.6693 11.2495 30.7656C11.2495 31.8618 12.1382 32.7505 13.2344 32.7505Z" fill="#EBE4DA"/>
<path opacity="0.5" d="M21.1721 25.4746C22.6337 25.4746 23.8186 24.2897 23.8186 22.828C23.8186 21.3664 22.6337 20.1815 21.1721 20.1815C19.7104 20.1815 18.5255 21.3664 18.5255 22.828C18.5255 24.2897 19.7104 25.4746 21.1721 25.4746Z" fill="#EBE4DA"/>
<path d="M29.1126 18.5254C31.1218 18.5254 32.7506 16.8966 32.7506 14.8875C32.7506 12.8783 31.1218 11.2495 29.1126 11.2495C27.1035 11.2495 25.4747 12.8783 25.4747 14.8875C25.4747 16.8966 27.1035 18.5254 29.1126 18.5254Z" fill="#EBE4DA"/>
<path d="M64.0991 32.9393C62.0159 32.9393 60.2406 32.4741 58.7689 31.5461C57.2971 30.6181 56.1725 29.3494 55.393 27.74C54.6134 26.1307 54.2182 24.3118 54.2051 22.2788C54.2182 20.2087 54.6265 18.3745 55.4301 16.7717C56.2337 15.1689 57.3779 13.9112 58.8606 12.994C60.3432 12.0769 62.1076 11.6205 64.1537 11.6205C66.4465 11.6205 68.3899 12.197 69.9796 13.35C71.5692 14.5029 72.6065 16.0773 73.0934 18.071L68.6061 19.2872C68.2567 18.202 67.678 17.3591 66.8679 16.7542C66.0578 16.1494 65.1341 15.848 64.1013 15.848C62.9286 15.848 61.9635 16.1254 61.2036 16.68C60.4437 17.2346 59.8825 17.9989 59.52 18.9706C59.1575 19.9423 58.9785 21.0472 58.9785 22.281C58.9785 24.2004 59.4087 25.753 60.269 26.9365C61.1293 28.12 62.4068 28.7139 64.1034 28.7139C65.3001 28.7139 66.2456 28.4388 66.9356 27.8907C67.6278 27.3426 68.1475 26.55 68.4969 25.5149L73.0978 26.5434C72.4733 28.6004 71.3836 30.1813 69.8245 31.2841C68.2654 32.3868 66.3591 32.9393 64.1013 32.9393H64.0991Z" fill="#2E0D05"/>
<path d="M84.8369 32.939C82.817 32.939 81.0527 32.4848 79.5438 31.5742C78.0349 30.6637 76.8667 29.4081 76.0369 27.8053C75.2071 26.2025 74.7922 24.3617 74.7922 22.2785C74.7922 20.1954 75.2159 18.3022 76.0631 16.7059C76.9103 15.1097 78.0895 13.8629 79.5984 12.9654C81.1073 12.0679 82.852 11.6181 84.8347 11.6181C86.8174 11.6181 88.6364 12.0723 90.1453 12.9829C91.6542 13.8934 92.8246 15.149 93.6609 16.7518C94.4951 18.3546 94.9143 20.1954 94.9143 22.2785C94.9143 24.3617 94.4929 26.2222 93.6522 27.8228C92.8115 29.4255 91.6345 30.6768 90.1278 31.5808C88.6189 32.4848 86.8546 32.9368 84.8347 32.9368L84.8369 32.939ZM84.8369 28.7137C86.6318 28.7137 87.966 28.1154 88.8395 26.9187C89.7129 25.7221 90.1475 24.1761 90.1475 22.2807C90.1475 20.3853 89.7042 18.7629 88.8198 17.5969C87.9355 16.4308 86.6056 15.8478 84.8369 15.8478C83.6272 15.8478 82.6336 16.1185 81.8541 16.6623C81.0745 17.2038 80.498 17.9593 80.1246 18.9245C79.7512 19.8918 79.5634 21.0099 79.5634 22.2807C79.5634 24.2373 80.0089 25.8007 80.8998 26.9646C81.7907 28.1307 83.1031 28.7137 84.8369 28.7137Z" fill="#2E0D05"/>
<path d="M98.6573 32.3776V12.1813H102.64V17.0988L102.153 16.4634C102.402 15.7908 102.736 15.1772 103.153 14.6204C103.571 14.0657 104.073 13.6072 104.658 13.2469C105.156 12.9106 105.708 12.6464 106.313 12.452C106.918 12.2599 107.538 12.1398 108.174 12.0961C108.809 12.0524 109.427 12.0808 110.025 12.1813V16.3891C109.427 16.2144 108.737 16.1577 107.96 16.221C107.18 16.2843 106.479 16.5005 105.857 16.8761C105.232 17.2123 104.726 17.6425 104.333 18.1666C103.94 18.6907 103.649 19.2868 103.464 19.9528C103.276 20.6188 103.184 21.3394 103.184 22.1124V32.3798H98.6595L98.6573 32.3776Z" fill="#2E0D05"/>
<path d="M110.962 15.7172V12.1819H125.044V15.7172H110.962ZM125.044 32.3782C123.71 32.6271 122.404 32.7363 121.127 32.7057C119.85 32.6752 118.705 32.4372 117.694 31.9961C116.685 31.5528 115.917 30.8518 115.395 29.8932C114.934 29.0198 114.69 28.1289 114.666 27.2183C114.639 26.3077 114.628 25.2792 114.628 24.1328V6.57214H119.116V23.8708C119.116 24.6809 119.125 25.3928 119.144 26.002C119.164 26.6134 119.29 27.1113 119.529 27.4978C119.978 28.2468 120.695 28.6639 121.679 28.7512C122.664 28.8385 123.787 28.7883 125.047 28.6005V32.3782H125.044Z" fill="#2E0D05"/>
<path d="M137.18 32.9393C135.136 32.9393 133.339 32.496 131.795 31.6116C130.249 30.7272 129.044 29.4979 128.177 27.9278C127.31 26.3578 126.878 24.5498 126.878 22.5037C126.878 20.2961 127.301 18.381 128.148 16.7542C128.996 15.1274 130.175 13.8653 131.684 12.9678C133.193 12.0704 134.937 11.6205 136.92 11.6205C139.014 11.6205 140.794 12.1097 142.259 13.0879C143.724 14.0662 144.812 15.4484 145.521 17.2303C146.231 19.0143 146.5 21.1149 146.325 23.5322H141.855V21.8858C141.842 19.6912 141.455 18.0906 140.696 17.0796C139.936 16.0708 138.739 15.5642 137.106 15.5642C135.26 15.5642 133.889 16.1341 132.992 17.2761C132.094 18.416 131.644 20.0843 131.644 22.2788C131.644 24.3227 132.094 25.9058 132.992 27.0282C133.889 28.1506 135.199 28.7118 136.918 28.7118C138.027 28.7118 138.984 28.465 139.789 27.9737C140.593 27.4824 141.213 26.7683 141.65 25.8316L146.1 27.1789C145.327 29 144.133 30.415 142.519 31.4238C140.905 32.4327 139.126 32.9393 137.18 32.9393ZM130.223 23.5322V20.1279H144.117V23.5322H130.223Z" fill="#2E0D05"/>
<path d="M147.147 32.3786L154.534 22.168L147.297 12.1823H152.608L157.152 18.6349L161.622 12.1823H166.933L159.696 22.168L167.12 32.3786H161.81L157.154 25.7033L152.459 32.3786H147.149H147.147Z" fill="#2E0D05"/>
<path d="M177.673 32.9403C175.815 32.9403 174.195 32.473 172.81 31.5384C171.426 30.6038 170.354 29.3308 169.594 27.7236C168.834 26.1143 168.454 24.3019 168.454 22.282C168.454 20.2622 168.838 18.4148 169.605 16.8121C170.371 15.2093 171.459 13.945 172.867 13.0147C174.275 12.0867 175.935 11.6216 177.841 11.6216C179.748 11.6216 181.372 12.0867 182.676 13.0147C183.979 13.9428 184.966 15.2115 185.639 16.8208C186.312 18.4301 186.648 20.2491 186.648 22.282C186.648 24.315 186.312 26.1012 185.639 27.7149C184.966 29.3286 183.962 30.6038 182.628 31.5384C181.294 32.473 179.643 32.9403 177.673 32.9403ZM178.066 41.9172C176.944 41.9172 175.869 41.7425 174.841 41.3931C173.812 41.0437 172.887 40.5415 172.063 39.8886C171.24 39.2335 170.568 38.4452 170.044 37.5237L174.195 35.4667C174.581 36.2026 175.127 36.7485 175.83 37.1023C176.533 37.4582 177.287 37.6351 178.084 37.6351C179.018 37.6351 179.855 37.4691 180.59 37.1394C181.326 36.8097 181.896 36.3227 182.302 35.6807C182.706 35.0387 182.899 34.2374 182.872 33.2788V27.538H183.434V12.1828H187.379V33.353C187.379 33.864 187.357 34.3531 187.314 34.8204C187.27 35.2877 187.198 35.7462 187.1 36.1939C186.801 37.5019 186.226 38.5784 185.379 39.4191C184.532 40.2598 183.482 40.8865 182.228 41.2992C180.975 41.7097 179.588 41.9172 178.068 41.9172H178.066ZM178.365 28.9006C179.575 28.9006 180.551 28.6233 181.291 28.0686C182.034 27.514 182.575 26.7388 182.918 25.7409C183.261 24.743 183.434 23.59 183.434 22.282C183.434 20.974 183.261 19.8036 182.918 18.8123C182.575 17.8209 182.043 17.0479 181.32 16.4932C180.597 15.9386 179.662 15.6613 178.514 15.6613C177.304 15.6613 176.306 15.9583 175.522 16.55C174.736 17.1418 174.157 17.941 173.784 18.9433C173.411 19.9477 173.223 21.0592 173.223 22.282C173.223 23.5049 173.406 24.636 173.775 25.6383C174.142 26.6427 174.708 27.4376 175.468 28.0228C176.228 28.608 177.195 28.9028 178.365 28.9028V28.9006Z" fill="#F24E29"/>
<path d="M192.242 32.3786V12.1823H196.225V17.0998L195.738 16.4644C195.987 15.7918 196.321 15.1782 196.738 14.6214C197.155 14.0668 197.658 13.6082 198.243 13.2479C198.741 12.9116 199.293 12.6474 199.898 12.4531C200.503 12.2609 201.123 12.1408 201.758 12.0972C202.394 12.0535 203.012 12.0819 203.61 12.1823V16.3902C203.012 16.2155 202.322 16.1587 201.544 16.222C200.765 16.2853 200.064 16.5015 199.442 16.8771C198.817 17.2134 198.31 17.6436 197.917 18.1676C197.524 18.6917 197.234 19.2878 197.048 19.9538C196.861 20.6198 196.769 21.3404 196.769 22.1134V32.3808H192.242V32.3786Z" fill="#F24E29"/>
<path d="M207.166 9.11657V4.98297H211.673V9.11657H207.166ZM207.166 32.3787V12.1824H211.673V32.3787H207.166Z" fill="#F24E29"/>
<path d="M216.869 41.356V12.1828H220.852V26.3589H221.413V41.356H216.869ZM226.612 32.9403C224.642 32.9403 222.989 32.473 221.657 31.5384C220.323 30.6038 219.319 29.3286 218.646 27.7149C217.974 26.1012 217.637 24.2888 217.637 22.282C217.637 20.2753 217.974 18.4301 218.646 16.8208C219.319 15.2115 220.308 13.945 221.609 13.0147C222.913 12.0867 224.525 11.6216 226.444 11.6216C228.363 11.6216 230.005 12.0867 231.41 13.0147C232.811 13.9428 233.899 15.2093 234.672 16.8121C235.445 18.4148 235.831 20.2382 235.831 22.282C235.831 24.3259 235.451 26.1165 234.692 27.7236C233.932 29.3329 232.859 30.6038 231.475 31.5384C230.091 32.473 228.47 32.9403 226.612 32.9403ZM225.92 28.9006C227.092 28.9006 228.058 28.608 228.818 28.0206C229.577 27.4354 230.143 26.6405 230.51 25.6361C230.877 24.6316 231.062 23.5136 231.062 22.2798C231.062 21.0461 230.875 19.9456 230.501 18.9411C230.128 17.9366 229.547 17.1396 228.763 16.5478C227.977 15.9561 226.979 15.6591 225.771 15.6591C224.564 15.6591 223.688 15.9364 222.965 16.4911C222.243 17.0457 221.71 17.8187 221.367 18.8101C221.024 19.8014 220.852 20.9588 220.852 22.2798C220.852 23.6009 221.022 24.743 221.367 25.7387C221.71 26.7366 222.251 27.5118 222.994 28.0664C223.736 28.6211 224.71 28.8984 225.92 28.8984V28.9006Z" fill="#F24E29"/>
</g>
<defs>
<clipPath id="clip0_43_677">
<rect width="235.831" height="44" fill="white"/>
</clipPath>
</defs>
</svg>
