<svg width="40" height="39" viewBox="0 0 40 39" fill="none" xmlns="http://www.w3.org/2000/svg">
<rect width="40" height="39" rx="19.5" fill="#2E0D05" fill-opacity="0.05"/>
<path d="M22.7355 17.4147C23.7001 18.1067 24.8818 18.5138 26.158 18.5138V16.0491C25.9165 16.0492 25.6756 16.0239 25.4393 15.9737V17.9137C24.1631 17.9137 22.9816 17.5066 22.0167 16.8146V21.8443C22.0167 24.3604 19.9843 26.3999 17.4773 26.3999C16.5419 26.3999 15.6724 26.1161 14.9502 25.6294C15.7745 26.4753 16.9241 27 18.1959 27C20.7031 27 22.7356 24.9604 22.7356 22.4442V17.4147H22.7355ZM23.6222 14.9281C23.1292 14.3876 22.8055 13.6892 22.7355 12.917V12.6H22.0544C22.2258 13.5814 22.8106 14.4199 23.6222 14.9281ZM16.5359 23.6986C16.2605 23.3362 16.1116 22.8929 16.1123 22.437C16.1123 21.2863 17.0419 20.3532 18.1888 20.3532C18.4026 20.3531 18.615 20.386 18.8187 20.4509V17.9311C18.5807 17.8984 18.3404 17.8845 18.1003 17.8896V19.8508C17.8964 19.786 17.6839 19.753 17.4701 19.7532C16.3232 19.7532 15.3936 20.6862 15.3936 21.8371C15.3936 22.6509 15.8582 23.3554 16.5359 23.6986Z" fill="#FF004F"/>
<path d="M22.0166 16.8146C22.9815 17.5065 24.163 17.9137 25.4391 17.9137V15.9736C24.7268 15.8213 24.0962 15.4478 23.622 14.9281C22.8104 14.4199 22.2257 13.5814 22.0542 12.6H20.2651V22.4441C20.2611 23.5918 19.333 24.521 18.1886 24.521C17.5142 24.521 16.915 24.1984 16.5356 23.6986C15.858 23.3554 15.3933 22.6508 15.3933 21.8371C15.3933 20.6863 16.3229 19.7533 17.4698 19.7533C17.6896 19.7533 17.9014 19.7876 18.1 19.8509V17.8896C15.6371 17.9407 13.6562 19.9603 13.6562 22.4442C13.6562 23.6841 14.1495 24.8082 14.9501 25.6295C15.6723 26.1161 16.5418 26.4 17.4772 26.4C19.9843 26.4 22.0167 24.3603 22.0167 21.8443V16.8146H22.0166Z" fill="black"/>
<path d="M25.4391 15.9736V15.4491C24.7967 15.45 24.167 15.2695 23.622 14.9281C24.1044 15.4582 24.7397 15.8237 25.4391 15.9736ZM22.0542 12.6C22.0378 12.5062 22.0253 12.4118 22.0166 12.317V12H19.5463V21.8443C19.5423 22.9917 18.6143 23.921 17.4698 23.921C17.1337 23.921 16.8165 23.8409 16.5355 23.6987C16.915 24.1984 17.5141 24.521 18.1885 24.521C19.3329 24.521 20.2611 23.5918 20.2651 22.4442V12.6H22.0542ZM18.1001 17.8896V17.3312C17.8937 17.3029 17.6856 17.2887 17.4772 17.2888C14.9699 17.2887 12.9375 19.3284 12.9375 21.8443C12.9375 23.4216 13.7363 24.8117 14.9501 25.6294C14.1495 24.8081 13.6563 23.684 13.6563 22.4441C13.6563 19.9603 15.637 17.9407 18.1001 17.8896Z" fill="#00F2EA"/>
</svg>
