<svg width="160" height="357" viewBox="0 0 160 357" fill="none" xmlns="http://www.w3.org/2000/svg">
<rect width="160" height="357" fill="#E5E5E5"/>
<g id="WEB 3178 Weavex Website Builder">
<rect width="1440" height="5459" transform="translate(-155.927 -1698.25)" fill="#FEF8F6"/>
<g id="Hero Section">
<rect width="1440" height="2039" transform="translate(-155.927 -998.254)" fill="white"/>
<path id="Vector 3" d="M144.341 346.8L123.506 356.761L125.297 333.737L144.341 346.8ZM126.378 345.403L126.096 347.383C44.026 335.71 -1.58108 255.077 0.0417856 174.716C0.854775 134.458 13.4909 94.0412 39.4624 62.0359C65.4577 30.0014 104.724 6.50648 158.553 9.7372e-05L158.793 1.98565L159.033 3.9712C106.18 10.3597 67.8758 33.3696 42.5685 64.5563C17.2374 95.7724 4.83871 135.293 4.04097 174.796C2.44237 253.957 47.3099 332.137 126.66 343.423L126.378 345.403Z" fill="#F26B45"/>
</g>
</g>
</svg>
