<svg preserveAspectRatio="none" width="100%" height="100%" overflow="visible" style="display: block;" viewBox="0 0 272 216" fill="none" xmlns="http://www.w3.org/2000/svg">
<g id="Frame 2147228217">
<path id="Vector" d="M181.695 93.4347C190.036 92.2732 199.299 84.9497 203.964 78.2534C204.424 82.7149 205.041 88.1188 207.237 92.094L207.803 92.0946C211.612 92.0296 214.438 93.526 217.863 94.3727C221.574 95.2899 224.714 96.0432 228.383 97.18C237.322 100.762 243.083 104.466 246.873 113.814C250.973 124.2 252.964 135.563 254.993 146.511C256.229 153.173 257.546 160.301 257.883 167.035C258.224 173.865 258.348 181.692 252.491 186.281C253.689 186.429 254.967 186.589 256.15 186.823C260 187.218 268.523 188.682 271.649 191.122C272.719 191.959 271.088 193.267 270.156 193.628C267.523 194.647 264.763 195.318 261.991 195.918C255.981 197.207 249.918 198.232 243.818 198.988C235.464 200.118 227.09 201.093 218.699 201.916C209.438 202.712 200.164 203.343 190.88 203.808C168.749 204.968 146.585 205.408 124.426 205.129C116.959 205.054 108.888 204.783 101.417 204.47L93.8734 204.139C92.9031 204.094 90.9104 203.935 90.009 203.972C89.8922 205.515 89.6856 206.865 89.4568 208.389C89.5764 208.773 89.5022 208.823 89.7608 208.927C91.4038 209.586 95.163 209.835 95.9805 211.591C96.184 217.472 56.8544 217.373 56.252 211.872C56.7254 210.016 61.0785 209.278 62.7029 209.03C62.2793 206.857 61.9445 204.388 61.6509 202.193C61.2292 199.604 61.0296 196.538 60.4835 194.017C60.4374 193.171 60.2081 192.451 60.1692 191.483C59.993 191.258 59.7377 190.991 59.5427 190.774C58.6372 190.526 57.9952 190.208 57.1931 190.485L57.0938 190.507C54.1533 189.229 53.6776 185.649 52.9212 182.818C51.5983 178.669 50.381 174.06 49.1495 169.854L41.2088 142.806L35.2383 122.478C34.1622 118.844 33.0424 115.214 32.0211 111.567C31.1899 108.597 32.1862 107.339 34.5181 105.782C36.5567 104.544 39.831 105.199 42.216 105.371L52.2821 106.103L84.1058 108.413L102.624 109.718C105.409 109.914 108.46 110.027 111.202 110.432C114.773 110.958 115.513 115.904 116.289 118.708L118.625 127.146C120.398 133.362 122.119 139.592 123.788 145.835C124.392 148.083 125.277 151.013 125.782 153.228C127.099 152.73 128.453 152.468 129.821 152.116C132.362 149.542 133.561 149.639 136.673 148.363C137.646 146.957 139.338 143.667 140.213 142.036C143.373 136.029 146.454 129.983 149.458 123.896C153.323 116.162 157.106 107.559 164.4 102.489C170.528 98.8328 175.384 97.6075 182.251 95.8531C182.055 95.2659 181.829 94.0652 181.695 93.4347Z" fill="var(--fill-0, #EA4519)"/>
<path id="Vector_2" d="M34.5181 105.782C36.5567 104.544 39.831 105.199 42.216 105.371L52.2821 106.103L84.1058 108.413L102.624 109.718C105.409 109.914 108.46 110.027 111.202 110.432C114.773 110.958 115.513 115.904 116.289 118.708L118.625 127.146C120.398 133.362 122.119 139.592 123.788 145.835C124.392 148.083 125.277 151.013 125.782 153.228C126.233 154.845 126.732 156.507 127.053 158.151L127.203 158.557C127.799 160.911 128.516 163.187 129.11 165.55L129.365 166.347C130.169 169.302 131.082 172.256 131.79 175.224C131.964 175.788 132.459 177.351 132.434 177.888L132.713 178.562C132.91 179.25 133.161 180.249 133.387 180.9L133.671 181.909C133.805 182.425 134.306 184.169 134.369 184.599L134.628 185.319C134.731 185.726 134.823 186.008 134.857 186.427L135.057 186.886C135.133 187.189 135.524 188.651 135.543 188.868L135.771 189.538L136.072 190.584C136.24 191.357 136.371 192.028 136.634 192.779L136.813 193.674C137.066 194.848 137.166 195.412 137.249 196.601C136.334 197.12 135.952 197.936 135.367 198.839C135.652 199.401 135.443 199.255 135.903 199.427C135.21 200.215 134.707 200.322 133.653 200.251C131.439 200.103 129.239 199.761 127.042 199.453L116.705 197.985C108.277 196.784 99.5452 195.744 91.1917 194.294L91.6761 191.053C91.9832 190.82 92.2465 190.502 92.2886 190.098C92.4254 188.783 93.1913 183.4 92.5986 182.521C91.6238 181.075 88.1937 180.529 86.6203 180.255L85.9239 180.753C85.5141 181.047 85.1039 181.233 84.9363 181.638L85.235 181.751C84.0528 181.755 83.3165 182.6 82.2873 183.277L80.6361 183.128L79.9194 183.364C79.1745 183.659 78.027 183.613 77.2057 183.607C76.699 183.616 76.2953 183.607 75.7917 183.694C74.8464 183.717 74.215 183.769 73.2851 183.582C72.2926 183.337 70.972 183.393 69.9229 183.392C68.5731 183.345 67.7319 182.51 66.4404 181.817L65.2612 181.035L64.3224 180.372C57.1002 181.38 58.7712 183.588 59.27 189.611C59.2981 189.949 59.4405 190.465 59.5427 190.774C58.6372 190.526 57.9952 190.208 57.1931 190.485L57.0938 190.507C54.1533 189.229 53.6776 185.649 52.9212 182.818C51.5983 178.669 50.381 174.06 49.1495 169.854L41.2088 142.806L35.2383 122.478C34.1622 118.844 33.0424 115.214 32.0211 111.567C31.1899 108.597 32.1862 107.339 34.5181 105.782Z" fill="var(--fill-0, #8E8D90)"/>
<path id="Vector_3" d="M34.5181 105.782C36.5568 104.544 39.8311 105.199 42.2161 105.371L52.2822 106.103L84.1059 108.413L102.624 109.718C105.409 109.914 108.46 110.027 111.202 110.432C114.773 110.958 115.513 115.904 116.289 118.708L118.625 127.146C120.398 133.362 122.119 139.592 123.788 145.835C124.392 148.083 125.277 151.013 125.782 153.228C126.233 154.845 126.732 156.507 127.053 158.151L127.203 158.557C127.799 160.911 128.516 163.187 129.11 165.55L129.365 166.347C130.169 169.302 131.082 172.256 131.79 175.224C131.964 175.788 132.459 177.351 132.434 177.888L132.713 178.562C132.91 179.25 133.161 180.249 133.388 180.9L133.671 181.909C133.805 182.425 134.306 184.169 134.369 184.599L134.628 185.319C134.731 185.726 134.823 186.008 134.857 186.427L135.057 186.886C135.133 187.189 135.524 188.651 135.543 188.868L135.771 189.538L136.072 190.584C136.24 191.357 136.371 192.028 136.634 192.779L136.813 193.674C137.066 194.848 137.166 195.412 137.249 196.601C136.334 197.12 135.952 197.936 135.367 198.839C133.39 189.94 130.506 180.129 128.103 171.272C122.987 152.676 117.979 134.051 113.081 115.396C112.479 113.368 111.678 112.698 109.955 111.676C109.248 110.994 104.772 111.008 103.62 110.944C100.301 110.746 96.9838 110.521 93.6684 110.271L49.7665 107.016C47.8065 106.879 35.6789 106.229 34.5181 105.782Z" fill="var(--fill-0, #B2B2B5)"/>
<path id="Vector_4" d="M109.955 111.676C111.817 110.868 113.389 112.331 114.211 113.889L113.082 115.396C112.479 113.368 111.679 112.698 109.955 111.676Z" fill="var(--fill-0, #BAB9BC)"/>
<path id="Vector_5" d="M76.3985 146.559C79.3825 144.961 80.6619 151.05 81.2363 153.057C82.1401 158.157 82.0211 163.708 81.1316 168.817C78.9301 174.387 78.2991 177.945 77.2059 183.607C76.6992 183.616 76.2955 183.607 75.7919 183.694C76.03 182.189 75.6113 180.268 75.576 178.757C75.4773 174.537 73.3124 171.098 72.2414 167.308C72.1445 166.255 72.0621 165.199 71.9944 164.143C71.6456 158.346 72.3782 151.088 76.3985 146.559Z" fill="var(--fill-0, #49843A)"/>
<path id="Vector_6" d="M59.3446 161.052C58.4274 159.245 56.8678 152.352 61.0105 154.618C64.5729 156.566 68.2375 161.22 70.3908 164.645C70.7336 165.19 71.7755 167.189 72.2412 167.308C73.3122 171.098 75.4771 174.537 75.5758 178.757C75.6111 180.268 76.0298 182.189 75.7917 183.694C74.8464 183.717 74.215 183.769 73.2851 183.582L72.6178 182.549C71.5978 181.652 70.497 180.981 69.5171 180.111C69.9614 180.291 70.3589 180.487 70.7881 180.702C69.9296 179.517 65.6739 173.182 64.9124 172.506C62.4149 168.437 60.8469 165.704 59.3446 161.052Z" fill="var(--fill-0, #5C9A4B)"/>
<path id="Vector_7" d="M59.3447 161.052C59.8152 161.301 61.3863 164.634 61.7041 165.352C64.0213 170.577 70.7411 177.566 72.6178 182.548C71.5978 181.652 70.497 180.981 69.5171 180.111C69.9614 180.291 70.3589 180.486 70.7881 180.702C69.9296 179.517 65.6739 173.182 64.9124 172.505C62.4149 168.437 60.847 165.704 59.3447 161.052Z" fill="var(--fill-0, #49843A)"/>
<path id="Vector_8" d="M60.4832 177.606C58.473 176.606 49.6299 167.793 51.2646 165.554C51.4579 165.293 51.7419 165.114 52.0606 165.052C55.0017 164.472 61.0517 169.043 63.1714 170.898C63.6453 171.313 64.5008 172.334 64.9126 172.505C65.6741 173.181 69.9298 179.517 70.7883 180.702C70.3591 180.486 69.9616 180.291 69.5174 180.111C70.4972 180.981 71.5981 181.652 72.6181 182.548L73.2854 183.582C72.2928 183.337 70.9722 183.393 69.9231 183.392C68.5733 183.345 67.7322 182.51 66.4406 181.816L65.2615 181.035L64.3226 180.372C63.0172 179.499 61.748 178.539 60.4832 177.606Z" fill="var(--fill-0, #5C9A4B)"/>
<path id="Vector_9" d="M60.4829 177.606C61.4715 177.661 65.1228 177.923 65.8961 177.823C66.8322 178.661 71.4379 182.862 72.1618 183.299C71.4992 183.314 70.5573 183.307 69.9229 183.392C68.5731 183.345 67.732 182.51 66.4404 181.817L65.2612 181.035L64.3224 180.372C63.017 179.5 61.7478 178.539 60.4829 177.606Z" fill="var(--fill-0, #49843A)"/>
<path id="Vector_10" d="M65.8959 177.823C65.392 177.347 63.4141 175.62 63.3389 175.109C65.0576 176.191 68.0083 179.25 69.5169 180.111C70.4968 180.981 71.5976 181.652 72.6176 182.548L73.2849 183.582C72.2924 183.337 70.9717 183.393 69.9226 183.392C70.557 183.307 71.499 183.314 72.1616 183.299C71.4377 182.862 66.8319 178.661 65.8959 177.823Z" fill="var(--fill-0, #2F6525)"/>
<path id="Vector_11" d="M81.1311 168.817C81.9267 167.997 82.3421 166.918 83.1095 165.925C85.1048 163.345 88.226 158.616 91.8757 158.51C93.2742 158.469 92.7187 161.323 92.3853 162.188C91.8135 162.454 90.2961 165.438 89.8526 166.192C87.6884 169.864 85.3611 173.454 83.4992 177.295C82.9894 178.347 82.1376 179.725 81.7861 180.796C81.2714 181.496 80.3464 182.667 79.9192 183.364C79.1743 183.659 78.0267 183.613 77.2054 183.607C78.2986 177.945 78.9296 174.387 81.1311 168.817Z" fill="var(--fill-0, #5C9A4B)"/>
<path id="Vector_12" d="M76.3984 146.559C76.0407 144.755 75.7311 141.664 76.9173 140.336C81.5683 135.133 86.8754 143.372 87.0952 147.671C87.3117 151.903 85.4432 155.024 81.2362 153.057C80.6618 151.05 79.3824 144.961 76.3984 146.559Z" fill="var(--fill-0, #B2B2B5)"/>
<path id="Vector_13" d="M81.7861 180.796C82.1376 179.725 82.9895 178.347 83.4993 177.295C85.3611 173.454 87.6884 169.864 89.8526 166.192C90.2961 165.438 91.8135 162.454 92.3853 162.188C91.5337 165.354 89.4235 169.162 87.7925 172.079C89.2948 170.875 94.6864 166.575 96.6289 168.317C97.9093 172.062 89.1831 178.046 86.6201 180.255L85.9237 180.753C85.5138 181.047 85.1037 181.233 84.936 181.638L85.2348 181.751C84.0525 181.755 83.3163 182.6 82.287 183.277L80.6359 183.128L79.9192 183.364C80.3464 182.667 81.2715 181.495 81.7861 180.796Z" fill="var(--fill-0, #49843A)"/>
<path id="Vector_14" d="M81.7861 180.796C82.7416 180.104 85.7112 176.308 86.3736 176.159C85.6599 177.96 81.8534 180.994 80.6359 183.128L79.9192 183.364C80.3464 182.667 81.2715 181.495 81.7861 180.796Z" fill="var(--fill-0, #2F6525)"/>
<path id="Vector_15" d="M86.6203 180.255C88.1938 180.529 91.6238 181.075 92.5986 182.521C93.1913 183.401 92.4254 188.783 92.2886 190.098C92.2466 190.502 91.9832 190.82 91.6761 191.053L91.1917 194.294C99.5452 195.745 108.277 196.784 116.705 197.985L127.042 199.453C129.239 199.761 131.439 200.103 133.653 200.251C134.707 200.322 135.21 200.215 135.903 199.427C135.443 199.255 135.652 199.401 135.367 198.839C135.952 197.936 136.334 197.12 137.249 196.601C137.166 195.412 137.066 194.848 136.813 193.674L136.634 192.779C136.371 192.028 136.24 191.357 136.072 190.584L135.771 189.538L135.543 188.868C135.524 188.651 135.133 187.189 135.057 186.887L134.857 186.428C134.823 186.008 134.731 185.727 134.628 185.319L134.369 184.599C134.306 184.169 133.805 182.425 133.671 181.909L133.387 180.9C136.205 181.227 139.183 182.317 142.106 182.421C143.798 182.481 147.896 180.928 149.223 181.559C150.099 181.649 150.962 181.676 151.826 181.768C153.263 182.427 153.74 182.562 155.244 182.073C156.093 183.458 156.35 183.575 157.981 183.804L158.058 184.071C158.691 184.124 160.812 183.308 161.041 183.475C161.206 183.596 161.363 183.685 161.545 183.776C162.2 184.17 162.487 184.377 163.225 184.616C164.208 184.619 164.63 184.421 165.482 183.953C166.083 184.066 166.685 184.168 167.291 184.254C168.174 183.698 172.827 184.525 174.381 184.559C179.406 184.665 184.449 184.696 189.472 184.5C190.136 184.474 193.166 184.443 193.594 184.371L192.983 183.989C193.445 183.861 193.866 184 194.349 184.091C194.774 184.701 194.874 184.81 195.434 185.3C197.2 186.813 206.239 187.247 208.777 187.453C215.635 188.032 222.507 188.429 229.387 188.645C234.451 188.818 239.48 188.957 244.545 188.616C247.468 188.419 249.979 187.808 252.491 186.281C253.689 186.429 254.967 186.589 256.15 186.823C260 187.218 268.523 188.682 271.649 191.122C272.719 191.959 271.088 193.268 270.156 193.628C267.523 194.648 264.763 195.318 261.991 195.918C255.981 197.207 249.918 198.232 243.818 198.989C235.464 200.118 227.09 201.093 218.699 201.916C209.438 202.712 200.164 203.343 190.88 203.808C168.749 204.968 146.585 205.408 124.426 205.129C116.959 205.054 108.888 204.783 101.417 204.471L93.8735 204.139C92.9031 204.094 90.9105 203.935 90.0091 203.972C89.8922 205.515 89.6856 206.865 89.4568 208.389C89.5764 208.773 89.5022 208.823 89.7609 208.927C91.4038 209.586 95.163 209.835 95.9805 211.591C96.184 217.472 56.8544 217.373 56.252 211.872C56.7254 210.016 61.0785 209.278 62.703 209.03C62.2793 206.857 61.9445 204.388 61.6509 202.193C61.2292 199.605 61.0296 196.538 60.4835 194.017C60.4374 193.171 60.2081 192.451 60.1692 191.483C59.993 191.258 59.7378 190.991 59.5427 190.774C59.4405 190.465 59.2981 189.949 59.27 189.611C58.7712 183.588 57.1003 181.38 64.3224 180.372L65.2613 181.035L66.4404 181.817C67.732 182.51 68.5731 183.345 69.9229 183.392C70.972 183.393 72.2926 183.337 73.2851 183.582C74.2151 183.769 74.8464 183.717 75.7917 183.694C76.2953 183.607 76.699 183.616 77.2057 183.607C78.027 183.613 79.1746 183.659 79.9195 183.364L80.6361 183.128L82.2873 183.277C83.3166 182.6 84.0528 181.755 85.235 181.751L84.9363 181.638C85.1039 181.233 85.5141 181.047 85.9239 180.753L86.6203 180.255Z" fill="var(--fill-0, #C3C3C2)"/>
<path id="Vector_16" d="M133.387 180.9C136.204 181.227 139.183 182.317 142.106 182.421C143.797 182.481 147.896 180.928 149.223 181.558C150.099 181.649 150.961 181.676 151.825 181.768C153.262 182.427 153.74 182.562 155.243 182.073C156.093 183.458 156.35 183.575 157.981 183.804L158.058 184.071C158.691 184.123 160.811 183.308 161.041 183.475C161.205 183.596 161.362 183.685 161.545 183.776C162.2 184.17 162.487 184.377 163.224 184.616C164.208 184.619 164.629 184.421 165.482 183.953C166.083 184.066 166.685 184.167 167.291 184.254C168.174 183.698 172.826 184.525 174.381 184.559C179.405 184.665 184.449 184.695 189.472 184.5C190.136 184.474 193.166 184.443 193.594 184.371C194.27 184.517 194.422 184.723 194.784 185.304C194.828 186.592 195.006 188.924 194.456 190.022C194.258 190.267 193.964 190.658 193.76 190.876C192.055 191.406 188.74 191.986 186.865 192.373L174.178 194.982L149.592 199.973C145.693 200.75 138.144 202.557 134.456 202.428C131.775 202.334 126.235 201.476 123.329 201.087L101.055 197.978C97.862 197.535 94.0166 196.865 90.9015 196.582L91.1914 194.294C99.5449 195.744 108.276 196.784 116.705 197.985L127.041 199.453C129.239 199.761 131.439 200.103 133.653 200.251C134.707 200.322 135.209 200.215 135.903 199.427C135.443 199.255 135.652 199.401 135.367 198.839C135.951 197.936 136.334 197.12 137.249 196.601C137.165 195.412 137.065 194.848 136.813 193.674L136.633 192.779C136.37 192.028 136.24 191.357 136.072 190.584L135.771 189.538L135.543 188.868C135.524 188.651 135.133 187.189 135.057 186.887L134.857 186.427C134.823 186.008 134.73 185.726 134.627 185.319L134.369 184.599C134.306 184.169 133.805 182.425 133.671 181.909L133.387 180.9Z" fill="url(#paint0_linear_0_107)"/>
<path id="Vector_17" d="M133.388 180.9C136.205 181.227 139.183 182.317 142.106 182.421C143.798 182.481 147.896 180.928 149.223 181.558C150.099 181.649 150.962 181.676 151.826 181.768C153.263 182.427 153.74 182.562 155.244 182.073C156.093 183.458 156.35 183.575 157.982 183.804L158.058 184.071C158.691 184.123 160.812 183.308 161.041 183.475C161.206 183.596 161.363 183.685 161.545 183.776C162.201 184.17 162.487 184.377 163.225 184.616C164.208 184.619 164.63 184.421 165.482 183.953C166.083 184.066 166.686 184.167 167.291 184.254C169.278 184.654 171.16 184.943 173.165 185.248L173.342 185.294C173.992 185.405 174.437 185.42 174.703 186.111C174.376 186.801 172.428 186.961 171.592 187.124L164.458 188.464L145.582 192.294C143.175 192.763 139.07 193.762 136.813 193.674L136.634 192.779C136.371 192.028 136.24 191.357 136.072 190.584L135.771 189.538L135.543 188.868C135.524 188.651 135.133 187.189 135.057 186.887L134.857 186.427C134.823 186.008 134.731 185.726 134.628 185.319L134.369 184.599C134.306 184.169 133.805 182.425 133.671 181.909L133.388 180.9Z" fill="var(--fill-0, #1D1D1D)"/>
<path id="Vector_18" d="M149.223 181.558C150.099 181.649 150.961 181.676 151.825 181.768C153.263 182.427 153.74 182.562 155.244 182.073C156.093 183.458 156.35 183.575 157.981 183.804L158.058 184.071C158.691 184.123 160.812 183.308 161.041 183.475C161.205 183.595 161.363 183.685 161.545 183.776C162.2 184.17 162.487 184.377 163.225 184.616C164.208 184.619 164.629 184.421 165.482 183.953C166.083 184.066 166.685 184.167 167.291 184.254C169.277 184.654 171.16 184.943 173.164 185.248L173.342 185.294C173.286 185.449 173.483 185.452 173.426 185.839C173.15 185.996 166.762 187.235 166.39 187.174C158.978 185.92 150.776 183.814 143.382 182.875C145.348 182.218 146.96 182.374 149.223 181.558Z" fill="var(--fill-0, #575758)"/>
<path id="Vector_19" d="M165.482 183.953C166.083 184.066 166.686 184.167 167.291 184.254C169.278 184.654 171.16 184.943 173.165 185.248C171.994 185.817 168.192 184.609 166.628 184.695C165.822 184.741 163.795 184.929 163.225 184.616C164.208 184.619 164.63 184.421 165.482 183.953Z" fill="var(--fill-0, #1D1D1D)"/>
<path id="Vector_20" d="M133.671 181.909C135.674 181.959 137.392 182.433 139.339 182.707C143.811 183.339 148.061 184.269 152.478 185.187C151.094 185.527 147.398 186.431 146.092 186.59C144.853 186.743 140.402 185.642 138.89 185.395C137.585 185.184 135.804 184.613 134.369 184.599C134.306 184.169 133.805 182.425 133.671 181.909Z" fill="var(--fill-0, #474747)"/>
<path id="Vector_21" d="M145.487 187.549C147.098 187.104 154.641 188.846 156.581 189.283C154.913 189.529 148.833 190.944 147.869 190.887C145.869 190.768 141.255 189.488 138.786 189.174C140.528 188.799 142.705 188.378 144.39 187.906C144.85 187.863 145.049 187.73 145.487 187.549Z" fill="var(--fill-0, #474747)"/>
<path id="Vector_22" d="M138.697 189.927C141.235 189.99 143.832 191.396 146.205 190.848L146.375 190.975C145.833 191.668 140.515 192.441 139.455 192.68C138.422 192.913 136.84 192.536 136.634 192.779C136.371 192.028 136.24 191.357 136.072 190.584C136.939 190.357 137.826 190.144 138.697 189.927Z" fill="var(--fill-0, #474747)"/>
<path id="Vector_23" d="M135.057 186.886C136.393 186.737 137.517 186.373 138.784 186.177C139.887 186.007 142.105 186.708 143.239 186.816C143.835 186.872 145.12 187.08 145.488 187.549C145.05 187.73 144.85 187.863 144.39 187.906L144.319 187.605C143.546 187.411 137.41 189.025 136.086 188.764C135.886 188.724 135.723 188.784 135.543 188.868C135.524 188.651 135.133 187.189 135.057 186.886Z" fill="var(--fill-0, #474747)"/>
<path id="Vector_24" d="M135.771 189.538C136.768 189.472 137.799 189.453 138.697 189.927C137.826 190.144 136.94 190.356 136.073 190.584L135.771 189.538Z" fill="var(--fill-0, #393838)"/>
<path id="Vector_25" d="M134.628 185.319C135.734 185.515 136.653 185.787 137.736 186.092C136.845 186.19 135.721 186.284 134.857 186.428C134.823 186.008 134.731 185.727 134.628 185.319Z" fill="var(--fill-0, #474747)"/>
<path id="Vector_26" d="M153.285 185.684C155.03 185.307 163.192 187.096 165.376 187.499C163.673 187.931 161.529 188.244 159.758 188.547C157.001 189.12 150.46 187.516 147.417 186.908C149.302 186.429 151.358 185.898 153.285 185.684Z" fill="var(--fill-0, #474747)"/>
<path id="Vector_27" d="M194.784 185.304C194.828 186.592 195.006 188.924 194.456 190.022C193.426 190.15 191.795 190.62 190.722 190.862C188.522 191.336 186.321 191.798 184.115 192.248L160.406 197.092C155.198 198.172 149.999 199.052 144.801 200.124C143.681 200.355 140.466 200.922 139.489 201.228L138.819 201.209C138.379 201.282 138.137 201.36 137.808 201.096C137.7 199.568 137.627 198.245 137.606 196.707C137.809 196.56 138.738 196.539 139.066 196.513C145.335 195.513 152.856 193.768 159.169 192.495L190.841 186.183C191.332 185.844 193.901 185.621 194.784 185.304Z" fill="var(--fill-0, #8E8D90)"/>
<path id="Vector_28" d="M190.841 186.183C190.568 186.493 190.476 186.558 190.042 186.647C186.711 187.334 183.351 187.959 180.017 188.639L156.906 193.348C154.779 193.781 140.161 196.988 139.123 196.671L139.066 196.513C145.335 195.513 152.856 193.768 159.169 192.495L190.841 186.183Z" fill="var(--fill-0, #B2B2B5)"/>
<path id="Vector_29" d="M138.819 201.209C138.826 200.363 138.699 197.975 139.286 197.43C139.952 197.942 139.685 200.476 139.489 201.228L138.819 201.209Z" fill="var(--fill-0, #B2B2B5)"/>
<path id="Vector_30" d="M150.033 197.12C150.545 197.056 150.396 196.999 150.819 197.16C150.418 197.568 147.44 197.991 146.675 198.12C146.262 198.191 146.102 198.188 145.689 198.198L145.646 198.084C146.761 197.613 148.817 197.309 150.033 197.12Z" fill="var(--fill-0, #575758)"/>
<path id="Vector_31" d="M135.367 198.839C135.951 197.935 136.334 197.12 137.249 196.601C136.961 197.793 136.773 198.469 135.903 199.427C135.443 199.255 135.652 199.401 135.367 198.839Z" fill="var(--fill-0, #BAB9BC)"/>
<path id="Vector_32" d="M86.6204 180.255C88.1938 180.529 91.6238 181.075 92.5987 182.521C93.1914 183.401 92.4255 188.783 92.2887 190.098C92.2466 190.502 91.9833 190.82 91.6762 191.053C90.5784 191.481 88.9073 191.772 88.3243 192.017C85.7156 192.455 82.0224 192.965 79.371 192.995C74.6031 192.942 69.9804 193.064 65.1895 192.336C64.3753 192.212 61.4658 191.379 60.9683 191.66C65.9426 193.91 75.4303 193.693 80.8993 193.82C83.0174 193.869 85.2283 194.241 87.3004 194.343L87.2579 194.571C86.953 196.258 86.8169 198.361 86.6427 200.115C86.3979 202.532 86.1136 204.944 85.7898 207.352C85.5932 208.823 85.4833 211.808 84.1419 212.493C78.9749 215.127 67.73 214.401 63.0363 211.626C63.0695 211.108 62.7996 209.621 62.703 209.03C62.2794 206.857 61.9446 204.388 61.651 202.193C61.2292 199.605 61.0297 196.538 60.4836 194.017C60.4375 193.171 60.2082 192.451 60.1693 191.483C59.9931 191.258 59.7378 190.991 59.5428 190.774C59.4405 190.465 59.2981 189.949 59.2701 189.611C58.7713 183.588 57.1003 181.38 64.3224 180.372L65.2613 181.035L66.4405 181.817C67.732 182.51 68.5732 183.345 69.9229 183.392C70.972 183.393 72.2927 183.337 73.2852 183.582C74.2151 183.769 74.8464 183.717 75.7918 183.694C76.2954 183.607 76.6991 183.616 77.2058 183.607C78.0271 183.613 79.1746 183.659 79.9195 183.364L80.6362 183.128L82.2874 183.277C83.3166 182.6 84.0529 181.755 85.2351 181.751L84.9363 181.638C85.104 181.233 85.5142 181.047 85.924 180.753L86.6204 180.255Z" fill="var(--fill-0, #F8E9D9)"/>
<path id="Vector_33" d="M82.2874 183.277C83.3166 182.6 84.0529 181.755 85.2351 181.751C87.1581 182.072 89.0961 182.343 90.721 183.509C85.6223 185.988 68.0271 186.089 62.7168 184.251C62.2319 184.084 61.7622 183.876 61.3129 183.629C62.4531 182.53 64.8769 182.142 66.4405 181.817C67.732 182.51 68.5732 183.345 69.9229 183.392C70.972 183.393 72.2927 183.338 73.2852 183.583C74.2151 183.769 74.8464 183.717 75.7918 183.694C76.2954 183.607 76.6991 183.616 77.2058 183.607C78.0271 183.613 79.1746 183.659 79.9195 183.364L80.6362 183.128L82.2874 183.277Z" fill="var(--fill-0, #4C2E1E)"/>
<path id="Vector_34" d="M85.9237 180.753C87.6564 181.145 90.9235 181.19 90.7207 183.509C89.0958 182.343 87.1578 182.072 85.2348 181.751L84.9361 181.638C85.1037 181.233 85.5139 181.047 85.9237 180.753Z" fill="var(--fill-0, #F49F5C)"/>
<path id="Vector_35" d="M65.261 181.035L66.4401 181.817C64.8766 182.142 62.4527 182.529 61.3125 183.629L60.8765 183.198C60.5434 181.632 64.1962 181.17 65.261 181.035Z" fill="url(#paint1_linear_0_107)"/>
<path id="Vector_36" d="M90.9018 196.582C94.0169 196.865 97.8623 197.535 101.055 197.978L123.329 201.087C126.235 201.476 131.775 202.334 134.456 202.428C138.144 202.557 145.693 200.75 149.592 199.973L174.179 194.982L186.865 192.373C188.74 191.986 192.055 191.406 193.76 190.876C194.556 191.085 195.491 191.357 195.4 192.344C194.442 193.612 189.343 194.265 187.55 194.652C181.879 195.878 176.196 197.045 170.5 198.156C160.534 200.172 150.61 202.545 140.518 204.054C134.109 205.013 126.741 203.815 120.295 202.95L99.517 199.957C96.5384 199.521 93.6353 198.986 90.6373 198.65C90.4368 200.424 90.2274 202.199 90.0091 203.972C89.8922 205.515 89.6856 206.865 89.4568 208.389C89.5764 208.773 89.5022 208.823 89.7609 208.927C91.4038 209.586 95.163 209.835 95.9805 211.591C96.184 217.472 56.8544 217.373 56.252 211.872C56.7254 210.016 61.0785 209.278 62.703 209.03C62.7995 209.621 63.0695 211.108 63.0362 211.626C67.7299 214.401 78.9748 215.127 84.1418 212.493C85.4832 211.808 85.5931 208.823 85.7898 207.352C86.1135 204.944 86.3979 202.532 86.6427 200.115C86.8168 198.361 86.9529 196.258 87.2578 194.571L87.3003 194.343C85.2283 194.241 83.0174 193.869 80.8992 193.82C75.4302 193.693 65.9425 193.91 60.9682 191.66C61.4658 191.379 64.3753 192.212 65.1894 192.336C69.9803 193.064 74.603 192.942 79.3709 192.995C82.0223 192.965 85.7156 192.455 88.3243 192.017C88.9072 191.772 90.5784 191.481 91.6761 191.053L91.1917 194.294L90.9018 196.582Z" fill="var(--fill-0, #EDD3B7)"/>
<path id="Vector_37" d="M89.4568 208.389C89.5764 208.773 89.5022 208.823 89.7609 208.927C91.4038 209.586 95.163 209.835 95.9805 211.591C96.184 217.472 56.8544 217.373 56.252 211.872C56.7254 210.016 61.0785 209.278 62.703 209.03C62.7995 209.621 63.0695 211.108 63.0362 211.626C64.0683 215.867 85.9029 215.477 89.0355 212.457C89.1463 212.35 89.3758 208.942 89.4568 208.389Z" fill="var(--fill-0, #F8E9D9)"/>
<path id="Vector_38" d="M88.3245 192.017C87.3695 193.287 80.9334 193.382 79.3711 192.995C82.0226 192.966 85.7158 192.455 88.3245 192.017Z" fill="var(--fill-0, #FCC794)"/>
<path id="Vector_39" d="M192.983 183.989C193.446 183.861 193.866 184 194.349 184.091C194.774 184.701 194.874 184.81 195.434 185.3C197.2 186.813 206.239 187.247 208.777 187.453C215.635 188.032 222.507 188.429 229.387 188.645C234.451 188.818 239.48 188.957 244.545 188.616C247.468 188.419 249.98 187.808 252.491 186.281C253.689 186.429 254.967 186.589 256.15 186.824C255.98 187.376 255.648 187.67 255.138 187.925C250.98 190.003 219.565 190.663 213.178 190.607C208.098 190.563 202.945 190.049 197.878 190.181C196.424 190.219 195.169 190.78 193.76 190.876C193.964 190.659 194.258 190.267 194.457 190.022C195.006 188.924 194.829 186.592 194.784 185.304C194.423 184.723 194.27 184.517 193.594 184.372L192.983 183.989Z" fill="var(--fill-0, #EDD3B7)"/>
<path id="Vector_40" d="M165.918 158.517C167.601 158.555 169.764 157.857 171.735 157.901C179.212 158.067 185.256 161.512 192.104 163.69C193.589 163.974 194.665 164.087 196.16 164.234C198.586 168.324 199.182 172.721 198.912 177.405C198.734 179.188 198.512 180.558 197.713 182.191C196.32 182.083 194.762 181.905 193.387 181.965C193.72 182.925 193.869 183.216 194.349 184.091C193.866 184 193.445 183.861 192.982 183.989L193.594 184.371C193.166 184.443 190.136 184.474 189.472 184.5C184.449 184.695 179.405 184.665 174.381 184.559C172.826 184.525 168.174 183.698 167.291 184.254C166.685 184.167 166.083 184.066 165.482 183.953C164.629 184.421 164.208 184.619 163.225 184.616C162.487 184.377 162.2 184.17 161.545 183.776C161.363 183.685 161.205 183.595 161.041 183.475C160.812 183.308 158.691 184.123 158.058 184.071L157.981 183.804C156.35 183.575 156.093 183.458 155.244 182.073C153.74 182.562 153.263 182.427 151.825 181.768L151.629 181.328L151.32 180.95C150.885 181.286 150.354 181.107 149.822 181.038L150.019 180.695C149.467 180.013 149.32 179.98 149.629 179.12C148.572 177.753 148.916 177.568 148.9 175.823L148.428 175.383C149.762 174.531 151.468 170.392 152.446 168.799C155.286 164.169 157.023 162.603 161.751 160.112C162.315 160.056 165.454 158.874 165.918 158.517Z" fill="var(--fill-0, #FCC794)"/>
<path id="Vector_41" d="M170.081 179.56C172.559 179.989 175.061 180.423 177.532 180.866C178.575 181.054 181.865 181.758 182.771 181.727C183.854 181.969 186.562 182.625 187.516 182.708C188.293 182.905 192.496 184.027 192.982 183.989L193.594 184.371C193.166 184.443 190.136 184.474 189.472 184.5C184.449 184.696 179.405 184.665 174.381 184.559C172.826 184.525 168.174 183.698 167.291 184.254C166.685 184.168 166.083 184.066 165.482 183.953C165.846 183.635 166.191 183.251 166.525 182.896C167.651 182.038 168.228 180.787 170.081 179.56Z" fill="var(--fill-0, #575758)"/>
<path id="Vector_42" d="M197.397 180.679C198.052 179.469 198.051 178.097 198.912 177.405C198.734 179.189 198.512 180.558 197.713 182.191C196.32 182.084 194.762 181.905 193.387 181.965C193.72 182.925 193.869 183.216 194.349 184.091C193.866 184 193.445 183.861 192.983 183.989C192.496 184.027 188.293 182.905 187.516 182.708C186.562 182.625 183.854 181.969 182.771 181.727C181.866 181.758 178.575 181.054 177.532 180.866C175.062 180.423 172.559 179.989 170.082 179.56C168.228 180.787 167.651 182.038 166.525 182.896C165.887 182.746 165.97 182.977 165.213 183.207C168.118 180.837 167.888 179.439 172.026 178.231C175.504 177.043 177.113 178.004 180.284 179.521C186.27 182.386 191.103 181.089 197.397 180.679Z" fill="var(--fill-0, #F49F5C)"/>
<path id="Vector_43" d="M170.082 179.56C171.492 178.592 173.897 178.348 175.567 178.203C175.995 178.485 176.271 178.618 176.733 178.845C178.189 179.768 181.14 181.01 182.771 181.727C181.866 181.758 178.576 181.054 177.532 180.866C175.062 180.423 172.559 179.989 170.082 179.56Z" fill="var(--fill-0, #EA4519)"/>
<path id="Vector_44" d="M187.515 182.708C189.263 182.356 191.455 182.349 193.386 181.965C193.72 182.925 193.868 183.216 194.349 184.091C193.865 184 193.445 183.861 192.982 183.989C192.496 184.027 188.293 182.905 187.515 182.708Z" fill="var(--fill-0, #ED7F36)"/>
<path id="Vector_45" d="M151.629 181.328C152.489 181.456 153.434 181.717 154.164 181.35C154.678 180.67 155.439 178.599 155.968 177.653C158.668 172.831 161.503 168.595 167.047 166.906C167.995 166.617 169.711 165.808 170.67 165.79C170.374 166.117 169.088 166.536 168.65 166.683C163.096 168.549 160.039 171.661 157.169 176.751C156.24 178.399 154.935 179.947 155.31 181.975C158.913 184.557 159.982 181.357 161.747 178.697C165.028 173.75 168.26 171.567 174.088 170.542C171.639 171.809 168.814 172.337 166.611 174.176C165.338 175.239 164.625 176.358 163.57 177.547C162.596 178.646 162.401 180.045 161.572 180.97C161.25 181.794 160.982 182.215 161.231 183.084L161.545 183.776C161.363 183.685 161.206 183.595 161.041 183.475C160.812 183.308 158.691 184.123 158.058 184.071L157.982 183.804C156.351 183.575 156.093 183.458 155.244 182.073C153.741 182.562 153.263 182.427 151.826 181.768L151.629 181.328Z" fill="var(--fill-0, #F49F5C)"/>
<path id="Vector_46" d="M157.982 183.804C160.001 183.373 160.248 182.656 161.406 180.931L161.572 180.971C161.25 181.795 160.982 182.216 161.231 183.084L161.545 183.776C161.363 183.685 161.206 183.596 161.041 183.475C160.812 183.308 158.691 184.124 158.058 184.071L157.982 183.804Z" fill="var(--fill-0, #1D1D1D)"/>
<path id="Vector_47" d="M150.022 179.071C150.024 178.734 149.952 178.59 150.133 178.329C153.793 173.048 155.507 166.15 162.275 163.756C163.501 163.323 165.394 162.265 166.753 162.219C166.707 162.281 163.294 163.788 163.059 163.876C157.937 165.783 155.507 169.687 153.036 174.324C152.459 175.355 151.06 178.046 150.875 179.18C150.456 179.208 150.437 179.178 150.022 179.071Z" fill="var(--fill-0, #ED7F36)"/>
<path id="Vector_48" d="M165.213 183.207C165.969 182.977 165.887 182.746 166.525 182.896C166.191 183.251 165.846 183.635 165.482 183.953C164.629 184.421 164.208 184.619 163.224 184.616C162.487 184.377 162.2 184.17 161.545 183.776L161.23 183.084C162.522 183.452 163.188 184.101 164.569 183.509C164.787 183.415 165.001 183.314 165.213 183.207Z" fill="var(--fill-0, #F49F5C)"/>
<path id="Vector_49" d="M149.629 179.12L150.022 179.071C150.437 179.178 150.456 179.208 150.875 179.18C151.013 179.847 151.113 180.302 151.32 180.95C150.885 181.286 150.355 181.107 149.823 181.038L150.02 180.695C149.467 180.013 149.32 179.981 149.629 179.12Z" fill="var(--fill-0, #575758)"/>
<path id="Vector_50" d="M129.821 152.116C134.493 151.639 138.707 151.856 142.552 154.963C145.723 157.525 148.322 161.822 148.724 165.919C149.113 169.902 147.213 171.878 144.922 174.802L144.929 174.896C145.978 175.054 147.23 175.28 148.268 175.398L148.428 175.383L148.9 175.823C148.916 177.568 148.572 177.753 149.629 179.12C149.32 179.981 149.467 180.013 150.02 180.695L149.823 181.038C150.355 181.107 150.885 181.286 151.32 180.95L151.629 181.328L151.826 181.768C150.962 181.676 150.099 181.65 149.223 181.559C147.896 180.928 143.798 182.481 142.106 182.421C139.183 182.317 136.205 181.227 133.388 180.9C133.161 180.249 132.91 179.25 132.713 178.562L132.434 177.888C132.459 177.351 131.964 175.788 131.79 175.225C131.082 172.256 130.169 169.303 129.365 166.348L129.11 165.55C128.516 163.187 127.799 160.911 127.203 158.557L127.053 158.151C126.732 156.507 126.233 154.845 125.782 153.228C127.099 152.731 128.453 152.468 129.821 152.116Z" fill="var(--fill-0, #FCC794)"/>
<path id="Vector_51" d="M134.259 170.889C135.608 171.669 137.807 171.725 139.339 171.507C139.182 172.529 139.184 173.093 139.251 174.129C140.367 177.42 142.79 177.201 144.929 174.896C145.979 175.054 147.231 175.28 148.268 175.397L148.428 175.383L148.9 175.823C148.916 177.568 148.572 177.753 149.629 179.12C149.32 179.98 149.467 180.013 150.02 180.695L149.823 181.038C150.355 181.107 150.885 181.286 151.32 180.95L151.629 181.328L151.826 181.768C150.962 181.676 150.099 181.649 149.223 181.558C147.896 180.928 143.798 182.481 142.106 182.421C139.184 182.317 136.205 181.227 133.388 180.9C133.161 180.249 132.91 179.25 132.713 178.562L132.434 177.888C132.459 177.351 131.964 175.788 131.79 175.224C132.515 174.544 132.679 174.202 133.178 173.366C133.454 172.634 133.934 171.627 134.259 170.889Z" fill="var(--fill-0, #575758)"/>
<path id="Vector_52" d="M134.767 178.18L134.911 178.153C135.817 178.524 138.122 178.728 139.242 178.936C142.784 179.596 146.334 180.105 149.823 181.038C150.355 181.107 150.885 181.286 151.32 180.95L151.629 181.328L151.826 181.768C150.962 181.676 150.099 181.649 149.223 181.559C147.896 180.928 143.798 182.481 142.106 182.421C139.183 182.317 136.205 181.227 133.388 180.9C133.161 180.249 132.91 179.25 132.713 178.562L132.906 178.568C133.595 178.583 134.263 178.662 134.767 178.18Z" fill="var(--fill-0, #474747)"/>
<path id="Vector_53" d="M148.428 175.383L148.9 175.823C148.916 177.568 148.572 177.753 149.629 179.12C149.32 179.981 149.467 180.013 150.019 180.695L149.822 181.038C146.334 180.105 142.783 179.596 139.242 178.936C138.122 178.728 135.816 178.524 134.911 178.153L134.761 177.797C136.958 177.288 140.005 178.244 142.443 177.971C143.252 177.881 148.372 176.685 148.645 176.348L148.588 176.134C148.337 176.008 148.316 175.986 148.088 175.824L148.268 175.398L148.428 175.383Z" fill="var(--fill-0, #8E8D90)"/>
<path id="Vector_54" d="M134.259 170.889C135.608 171.669 137.806 171.725 139.339 171.507C139.182 172.529 139.183 173.093 139.251 174.129C137.842 173.77 134.515 173.14 133.177 173.366C133.454 172.634 133.934 171.627 134.259 170.889Z" fill="var(--fill-0, #C62D0A)"/>
<path id="Vector_55" d="M132.434 177.888C133.127 177.905 134.084 178.027 134.767 178.18C134.263 178.662 133.594 178.583 132.905 178.568L132.713 178.562L132.434 177.888Z" fill="var(--fill-0, #1D1D1D)"/>
<path id="Vector_56" d="M134.431 170.796C135.302 169.992 136.119 167.886 136.898 166.843C138.025 165.333 139.445 164.038 140.79 162.721C140.863 163.998 141.139 164.626 141.633 165.792C142.406 164.841 142.743 164.313 143.383 163.257C143.003 164.784 142.587 165.806 141.962 167.213C141.366 168.552 139.558 170.172 139.548 171.274L139.339 171.507C137.806 171.725 135.608 171.67 134.259 170.889L134.431 170.796Z" fill="var(--fill-0, #F49F5C)"/>
<path id="Vector_57" d="M139.339 171.507L139.548 171.274C139.756 172.752 139.664 173.06 140.203 174.494C142.437 176.473 143.351 175.455 144.607 173.284C144.506 173.883 144.347 174.204 144.545 174.701L144.922 174.802L144.929 174.896C142.789 177.201 140.366 177.42 139.251 174.129C139.183 173.094 139.182 172.529 139.339 171.507Z" fill="var(--fill-0, #F49F5C)"/>
<path id="Vector_58" d="M135.724 166.93C137.539 164.725 139.708 162.93 141.745 160.898C141.437 161.547 141.135 162.096 140.789 162.721C139.445 164.038 138.025 165.333 136.898 166.843C136.119 167.886 135.302 169.992 134.431 170.796C134.776 169.147 135.953 168.412 135.724 166.93Z" fill="var(--fill-0, #ED7F36)"/>
<path id="Vector_59" d="M131.79 175.224C132.139 173.724 134.647 168.057 135.724 166.93C135.954 168.412 134.776 169.147 134.431 170.795L134.259 170.889C133.934 171.627 133.454 172.634 133.178 173.366C132.679 174.202 132.515 174.544 131.79 175.224Z" fill="var(--fill-0, #F49F5C)"/>
<path id="Vector_60" d="M134.96 157.884C131.455 161.471 131.454 161.695 129.365 166.347L129.11 165.549C129.512 163.443 131.971 159.87 133.8 158.617C134.18 158.362 134.566 158.117 134.96 157.884Z" fill="var(--fill-0, #ED7F36)"/>
<path id="Vector_61" d="M127.053 158.151C127.443 157.761 127.869 157.237 128.374 157.079C128.321 157.57 127.581 158.189 127.203 158.557L127.053 158.151Z" fill="var(--fill-0, #F49F5C)"/>
<path id="Vector_62" d="M181.696 93.4347C190.037 92.2732 199.299 84.9497 203.965 78.2534C204.425 82.7149 205.042 88.1188 207.237 92.094C208.526 93.4737 209.283 93.9587 211.017 94.7653L210.879 94.9928C210.101 96.2914 209.63 97.4175 208.67 98.7019C205.555 102.87 200.858 105.677 195.884 107.025C191.779 108.137 184.245 108.355 181.601 104.206C180.668 101.53 180.736 100.107 182.607 97.9831L182.297 96.1397L182.251 95.8531C182.056 95.2659 181.829 94.0652 181.696 93.4347Z" fill="url(#paint2_linear_0_107)"/>
<path id="Vector_63" d="M192.104 163.69C192.993 161.618 193.743 161.901 195.597 162.995C197.647 164.205 198.406 167.62 199.028 169.75C199.98 173.978 200.217 179.302 198.036 183.2C197.27 184.569 196.387 184.759 195.065 184.044L194.874 184.147C195.091 184.54 195.319 184.876 195.433 185.3C194.874 184.81 194.774 184.701 194.349 184.091C193.868 183.216 193.72 182.925 193.386 181.965C194.762 181.905 196.32 182.084 197.713 182.191C198.512 180.558 198.734 179.189 198.912 177.405C199.182 172.721 198.586 168.324 196.159 164.234C194.665 164.087 193.589 163.975 192.104 163.69Z" fill="var(--fill-0, #C62D0A)"/>
<path id="Vector_64" d="M161.751 160.112C162.929 157.985 163.933 155.703 164.912 153.48C165.208 155.166 165.543 156.846 165.918 158.518C165.454 158.874 162.315 160.056 161.751 160.112Z" fill="var(--fill-0, white)"/>
<path id="Vector_65" d="M182.296 96.1397L182.606 97.9831C180.736 100.107 180.668 101.53 181.601 104.206L181.296 104.123C179.065 101.495 180.465 98.4828 182.296 96.1397Z" fill="var(--fill-0, #C62D0A)"/>
<path id="Vector_66" d="M207.237 92.094L207.803 92.0946C208.951 92.9282 210.77 92.3298 211.303 93.8137C211.242 94.1972 211.239 94.4464 211.017 94.7654C209.283 93.9587 208.526 93.4738 207.237 92.094Z" fill="var(--fill-0, #C62D0A)"/>
<path id="Vector_67" d="M161.32 105.661C161.924 106.315 161.431 108.676 161.309 109.647L161.191 109.423L161.16 109.143L161.075 109.486C160.969 107.884 161.007 107.233 161.32 105.661Z" fill="var(--fill-0, #C62D0A)"/>
<path id="Vector_68" d="M164.4 102.489C160.384 102.739 155.539 101.866 152.049 99.8084C149.473 98.2755 147.396 96.031 146.071 93.346C140.807 82.8908 146.645 72.6928 145.567 61.9464C145.182 59.9931 144.892 54.4179 143.83 52.8758C142.006 50.2287 141.364 50.1173 140.532 46.4703C138.42 37.6777 140.873 28.6803 145.308 21.0665C153.07 7.74135 177.344 -6.18653 192.014 2.91565C192.149 2.86828 192.287 2.82311 192.424 2.77985C196.684 1.45261 203.244 2.7995 207.103 4.89858C217.897 10.7683 223.397 22.9773 226.615 34.2595C227.881 38.6962 229.012 44.1351 231.053 48.1077C234.676 55.2136 241.067 59.2179 243.266 67.2359C247.217 81.6235 243.242 92.779 228.383 97.1802C224.714 96.0433 221.573 95.2901 217.863 94.3729C214.437 93.5261 211.611 92.0298 207.802 92.0947L207.237 92.0941C205.041 88.1189 204.424 82.7151 203.964 78.2535C199.298 84.9498 190.036 92.2734 181.695 93.4349C181.829 94.0653 182.055 95.266 182.25 95.8532C175.383 97.6077 170.528 98.833 164.4 102.489Z" fill="var(--fill-0, #4C2E1E)"/>
<path id="Vector_69" d="M173.697 26.2295C174.17 25.4346 174.809 24.4042 175.21 23.5872C176.843 29.8985 179.634 33.2515 184.596 37.2716C185.595 40.5478 197.143 44.2825 200.407 44.8439C201.05 46.5876 203.114 52.5143 204.705 53.1229C205.064 53.2603 205.449 53.298 205.798 53.1053C208.313 51.7213 206.229 44.4704 211.289 41.6586C212.472 41.0131 213.832 40.7642 215.168 40.9487C225.224 42.3816 222.348 64.6129 209.647 64.0186C208.648 69.6523 206.98 73.4234 203.965 78.2535C199.299 84.9498 190.036 92.2734 181.695 93.4349C174.868 94.5731 168.177 91.0489 163.032 86.9083C154.514 80.0499 152.885 70.2574 150.671 60.237C149.84 56.4788 148.471 52.5976 148.162 48.704C149.56 48.7345 161.5 40.5421 163.375 38.8929C165.764 37.2976 173.554 28.8127 173.697 26.2295Z" fill="var(--fill-0, #FCC794)"/>
<path id="Vector_70" d="M179.631 52.6211C181.216 52.6529 182.404 53.3026 183.165 54.7132C184.662 57.4896 185.351 61.8502 182.111 63.6074C180.267 63.7237 178.931 62.5497 178.292 60.9054C177.272 58.2819 176.551 54.049 179.631 52.6211Z" fill="var(--fill-0, #1D1D1D)"/>
<path id="Vector_71" d="M179.576 54.1853C181.438 54.6384 181.425 55.9549 180.336 57.2307C178.595 57.0924 178.618 55.2902 179.576 54.1853Z" fill="var(--fill-0, white)"/>
<path id="Vector_72" d="M157.574 56.0033C159.21 55.971 160.23 56.7219 160.945 58.1932C162.123 60.6162 163.288 65.2255 160.39 66.7979C156.709 66.9271 155.518 61.2168 155.981 58.3697C156.175 57.1747 156.582 56.6464 157.574 56.0033Z" fill="var(--fill-0, #1D1D1D)"/>
<path id="Vector_73" d="M157.558 57.6657C159.091 58.0737 159.124 59.4804 158.25 60.5707C156.789 60.0703 156.541 58.7895 157.558 57.6657Z" fill="var(--fill-0, white)"/>
<path id="Vector_74" d="M171.14 82.6533C170.024 82.1675 167.275 80.8619 167.07 79.6189C167.411 79.0839 168.064 79.2911 168.749 79.358C170.245 79.5043 171.483 79.4728 172.965 79.2921C175.063 79.0359 177.031 78.3356 178.832 77.2319C179.508 76.8271 180.75 76.0321 181.486 75.8324C181.883 76.0172 181.716 75.8815 181.961 76.3006C182.058 77.5132 181.059 78.7202 180.346 79.6475C177.691 82.5994 175.043 83.4376 171.14 82.6533Z" fill="var(--fill-0, #7F1C05)"/>
<path id="Vector_75" d="M171.139 82.6533C173.017 80.597 177.655 78.4602 180.346 79.6474C177.69 82.5993 175.042 83.4376 171.139 82.6533Z" fill="var(--fill-0, #C62D0A)"/>
<path id="Vector_76" d="M179.848 42.4075C182.211 42.439 186.505 43.7271 187.234 46.2231L186.999 46.5755C185.741 46.8371 183.641 45.574 181.769 45.1554C178.647 44.7429 177.516 45.8605 174.671 45.8145C174.324 45.8089 174.136 45.4726 173.996 45.2223C174.04 42.9981 178.18 42.5449 179.848 42.4075Z" fill="var(--fill-0, #4C2E1E)"/>
<path id="Vector_77" d="M210.601 50.8743C210.995 50.2734 211.152 49.9995 211.643 49.4915C217.903 50.8354 214.452 55.7586 210.918 58.0952C211.538 56.5064 212.158 55.0554 211.482 53.3192C210.995 52.0661 210.676 52.3282 210.13 51.7346C210.461 51.47 210.423 51.3354 210.601 50.8743Z" fill="var(--fill-0, #F49F5C)"/>
<path id="Vector_78" d="M155.022 46.929C156.183 46.817 159.695 46.6493 159.244 48.6188C158.362 49.4978 155.169 49.1953 153.16 50.3732C152.462 50.9427 151.729 52.0905 151.182 52.2976C150.325 51.954 150.985 50.2079 151.292 49.6129C152.092 48.06 153.438 47.4416 155.022 46.929Z" fill="var(--fill-0, #4C2E1E)"/>
<path id="Vector_79" d="M166.879 65.0496L167.307 65.1857L167.291 65.4054C167.25 65.9465 167.211 66.4699 167.048 66.9807C166.599 68.3917 164.894 70.6036 165.974 72.0412C166.829 73.178 169.752 73.0294 170.97 72.8091C171.328 73.2409 171.536 73.2874 172.043 73.517C169.867 74.8042 167.351 75.1675 165.435 72.8646C163.73 70.8149 166.443 67.8303 166.848 65.2592L166.879 65.0496Z" fill="var(--fill-0, #F49F5C)"/>
<path id="Vector_80" d="M210.131 51.7345C209.678 48.9344 212.713 44.2722 216.079 45.4855C216.272 45.6131 216.512 45.7609 216.695 45.8946C216.018 46.1552 215.816 46.24 215.105 46.3408C213.245 47.2071 212.827 47.8499 211.643 49.4914C211.152 49.9994 210.995 50.2733 210.601 50.8742C210.423 51.3353 210.461 51.4699 210.131 51.7345Z" fill="var(--fill-0, #ED7F36)"/>
<path id="Vector_81" d="M216.079 45.4855C216.271 45.6131 216.511 45.7609 216.694 45.8946C216.017 46.1553 215.816 46.24 215.104 46.3408C213.244 47.2071 212.827 47.8499 211.642 49.4914C211.151 49.9994 210.994 50.2733 210.6 50.8742C211.062 48.54 212.086 47.5533 213.714 45.9945C214.478 45.8861 215.522 45.879 216.079 45.4855Z" fill="var(--fill-0, #F49F5C)"/>
<path id="Vector_82" d="M216.695 45.8948C217.69 47.2181 218.088 48.055 218.107 49.7995C217.221 49.1901 217.787 46.7416 215.105 46.3409C215.816 46.2402 216.018 46.1554 216.695 45.8948Z" fill="var(--fill-0, #F49F5C)"/>
<path id="Vector_83" d="M170.971 72.8094C171.641 72.6032 172.334 72.3191 173.012 72.3681L173.103 72.5535C172.787 73.033 172.518 73.1713 172.043 73.5173C171.536 73.2876 171.328 73.2412 170.971 72.8094Z" fill="var(--fill-0, #F49F5C)"/>
<path id="Vector_84" d="M166.879 65.0497C166.918 64.6179 166.912 63.8652 167.125 63.5761C167.313 64.2545 167.291 64.4662 167.307 65.1858L166.879 65.0497Z" fill="var(--fill-0, #F49F5C)"/>
<path id="Vector_85" d="M173.696 26.2294C173.554 28.8126 165.764 37.2975 163.374 38.8928C161.499 40.542 149.559 48.7345 148.162 48.704L148.031 47.2902C150.855 45.9049 153.523 44.5766 156.206 42.9332C157.98 41.8468 159.517 40.7221 161.241 39.5949C161.374 39.3646 163.407 37.7467 163.755 37.4644C167.776 34.2066 170.715 30.4106 173.696 26.2294Z" fill="var(--fill-0, #F49F5C)"/>
<path id="Vector_86" d="M184.596 37.2716C189.783 40.732 193.748 42.2558 199.97 43.2852C200.095 43.7895 200.22 44.3679 200.406 44.8438C197.142 44.2824 185.595 40.5477 184.596 37.2716Z" fill="var(--fill-0, #F49F5C)"/>
<path id="Vector_87" d="M42.2271 5.59892C44.368 5.51181 47.0797 5.59232 49.2552 5.59115L63.1045 5.58426L104.239 5.55757C108.782 5.52985 112.304 4.98414 115.801 8.4681C119.552 12.2058 119.19 16.1913 119.201 21.0815C119.208 24.13 119.2 27.2012 119.177 30.2551L119.183 50.0312C119.177 55.3825 119.945 60.8409 115.845 64.7526C112.16 68.2687 108.093 67.8679 103.358 67.7973L103.364 75.7126C103.385 77.1048 103.698 79.5509 102.85 80.686C102.666 80.9318 102.431 81.0585 102.132 81.082C101.494 81.1323 100.853 80.6514 100.398 80.2532C97.6033 77.8057 89.1785 69.2005 86.8963 68.2262C84.6509 67.2675 79.6213 67.7272 77.0505 67.7422L53.1742 67.7768C49.6067 67.7868 46.0373 67.8619 42.4719 67.7809C39.6813 67.718 37.5899 67.1617 35.4732 65.3319C30.6374 61.1516 31.5808 55.4617 31.5714 49.676L31.5479 33.9857L31.5204 22.0356C31.5193 19.7386 31.3295 16.8838 31.7282 14.6771C32.7673 8.92698 36.6408 5.91335 42.2271 5.59892Z" fill="var(--fill-0, #F8E9D9)"/>
<path id="Vector_88" d="M97.8817 6.49102C100.443 6.49352 109.274 6.28585 111.309 6.82877C112.774 7.20993 114.109 7.97709 115.175 9.04973C117.892 11.7598 118.306 14.5081 118.327 18.1419L118.321 45.0764C118.324 49.3859 118.511 54.7469 118.042 58.9939C117.864 60.6024 116.441 62.7901 115.279 63.9803C111.853 67.4904 107.043 66.8527 102.441 66.8275C102.476 70.0524 102.618 77.5873 102.247 80.5347C97.8557 77.3044 93.5963 72.4409 89.3801 68.8566C86.8269 66.6863 85.4143 66.776 82.1274 66.8246C81.0667 66.8401 79.9279 66.8251 78.8825 66.8254L66.9206 66.8332L49.7816 66.8533C46.7394 66.858 43.1503 67.0574 40.1963 66.6025C35.1971 65.7205 32.451 61.0504 32.4369 56.3201C32.4011 44.2304 32.4228 32.222 32.4225 20.1388C32.4225 18.2744 32.3584 15.7265 32.7345 13.9298C33.4252 10.6311 36.5873 7.29382 39.9782 6.77847C42.3966 6.42532 44.8028 6.53575 47.1708 6.53531L58.0182 6.54118L97.8817 6.49102Z" fill="var(--fill-0, white)"/>
<path id="Vector_89" d="M77.0249 22.6234L87.5463 22.601C89.6884 22.5912 93.0582 22.1456 94.7293 23.4534C96.4525 24.8019 95.4098 28.4663 93.2583 28.5914C90.2252 28.7677 87.0749 28.6721 84.0219 28.6671L64.5744 28.6737C59.1289 28.6264 53.6479 28.8245 48.2209 28.6055C45.0431 28.4773 45.1792 22.9374 48.0932 22.7516C51.18 22.555 54.5615 22.6548 57.6729 22.6566L77.0249 22.6234Z" fill="var(--fill-0, #EA4519)"/>
<path id="Vector_90" d="M47.9529 36.4952C50.5681 36.3673 73.9423 36.2227 75.1606 36.6492C75.7997 36.8728 76.3014 37.3465 76.5945 37.9497C76.953 38.6872 77.0595 39.7473 76.7731 40.5241C76.431 41.4526 75.6977 41.9163 74.8534 42.3431C71.5408 42.5871 68.0753 42.3689 64.7414 42.3709C61.7666 42.3727 49.5531 42.7216 47.4705 42.0913C46.9039 41.9198 46.4658 41.5208 46.2064 40.9911C45.6731 39.9021 45.9519 38.7232 46.3102 37.6365C46.9866 36.9808 47.0877 36.8956 47.9529 36.4952Z" fill="var(--fill-0, #EA4519)"/>
<path id="Vector_91" d="M84.2418 43.4467C86.874 43.4314 89.5072 43.4272 92.1392 43.4121C94.1211 43.4005 97.1188 43.34 97.2825 46.0278C97.3358 46.9925 96.9751 47.9342 96.2907 48.6176C95.439 49.4704 94.8078 49.4059 93.6939 49.3919C91.4533 49.3704 89.2245 49.4535 86.962 49.4274C84.9104 49.4037 81.793 49.8715 80.6798 47.6416C80.175 46.63 80.7872 45.054 81.445 44.2489C82.0653 43.4895 83.3436 43.4829 84.2418 43.4467Z" fill="var(--fill-0, #EA4519)"/>
<path id="Vector_92" d="M52.921 182.818C53.6774 185.649 54.153 189.229 57.0936 190.507L57.1929 190.485C57.995 190.208 58.637 190.526 59.5425 190.774C59.7375 190.991 59.9928 191.258 60.169 191.483C60.2079 192.451 60.4372 193.171 60.4833 194.017C61.0294 196.538 61.2289 199.604 61.6507 202.193C50.9191 201.622 8.53021 197.047 1.08957 192.493C0.610944 192.2 0.0788289 191.802 0.0079979 191.201C-0.0369695 190.82 0.111306 190.506 0.361566 190.229C4.37557 185.791 45.5237 182.89 52.921 182.818Z" fill="var(--fill-0, #C3C3C2)"/>
<path id="Vector_93" d="M57.1931 190.485C57.9952 190.208 58.6372 190.526 59.5428 190.774C59.7378 190.991 59.993 191.258 60.1692 191.483C60.2082 192.451 60.4374 193.171 60.4835 194.017C58.6287 193.586 54.6894 193.154 57.0938 190.507L57.1931 190.485Z" fill="var(--fill-0, #EDD3B7)"/>
<path id="Vector_94" d="M57.1934 190.485C57.9954 190.208 58.6375 190.526 59.543 190.774C59.738 190.991 59.9933 191.258 60.1695 191.483L59.9601 191.698C58.9223 192.043 57.671 191.477 57.1934 190.485Z" fill="var(--fill-0, #575758)"/>
</g>
<defs>
<linearGradient id="paint0_linear_0_107" x1="141.412" y1="202.969" x2="144.059" y2="179.111" gradientUnits="userSpaceOnUse">
<stop stop-color="#6D6C6E"/>
<stop offset="1" stop-color="#828285"/>
</linearGradient>
<linearGradient id="paint1_linear_0_107" x1="63.1819" y1="181.535" x2="63.4179" y2="182.722" gradientUnits="userSpaceOnUse">
<stop stop-color="#C99D6D"/>
<stop offset="1" stop-color="#D4A58B"/>
</linearGradient>
<linearGradient id="paint2_linear_0_107" x1="188.638" y1="87.2488" x2="203.725" y2="103.246" gradientUnits="userSpaceOnUse">
<stop stop-color="#F9A766"/>
<stop offset="1" stop-color="#FDD6A6"/>
</linearGradient>
</defs>
</svg>
