<svg preserveAspectRatio="none" width="100%" height="100%" overflow="visible" style="display: block;" viewBox="0 0 306.371 204.202" fill="none" xmlns="http://www.w3.org/2000/svg">
<g id="Frame 2147228226">
<path id="Vector" d="M153.296 43.8598L153.293 35.998C153.3 31.8429 152.786 27.3637 155.859 24.1247C159.162 20.6432 163.404 21.369 167.898 21.3704L259.205 21.3829L285.835 21.3852L293.832 21.3709C297.489 21.3636 300.573 21.0887 303.473 23.8951C306.381 26.7068 306.376 29.6801 306.371 33.4194L306.347 43.8805L306.323 125.894L306.335 149.564C306.335 153.579 306.443 157.776 306.2 161.738C305.965 165.556 302.041 169.33 298.268 169.528C296.452 169.624 294.671 169.614 292.857 169.604L284.04 169.579L253.307 169.599L191.922 169.587C182.022 169.585 172.12 169.58 162.22 169.611C160.443 169.616 159.289 169.183 157.802 168.33C154.54 166.463 153.186 163.304 153.322 159.672C153.36 158.639 153.629 155.505 153.139 154.678C153.301 153.841 153.428 153.437 153.349 152.581L153.218 152.275C152.854 151.738 152.353 151.157 151.938 150.646C151.597 151.49 151.183 152.5 150.769 153.309C150.375 153.718 148.936 153.377 148.469 153.23C144.198 151.885 137.966 148.073 135.711 144.145C134.534 144.026 134.813 142.155 134.544 141.468L134.992 141.248C135.878 141.086 136.281 141.157 137.168 141.223C139.236 137.655 138.651 136.386 139.257 132.392C140.945 121.269 145.844 115.773 153.411 108.344C153.208 107.385 153.33 98.243 153.328 96.6125L153.333 59.4216L153.398 49.1919C153.404 48.0612 153.485 44.8328 153.296 43.8598Z" fill="url(#paint0_linear_0_4)"/>
<path id="Vector_2" d="M168.341 96.5683C168.127 89.476 168.308 82.1725 168.282 75.055C168.27 71.8325 168.076 67.9846 168.434 64.8037C168.542 63.8335 169.505 62.1016 170.239 61.3875C172.511 59.1755 173.744 59.1831 176.582 59.1655L222.061 59.1946L236.017 59.1684C237.977 59.1638 241.376 58.9119 243.191 59.2677C249.582 60.5208 248.901 67.1011 248.893 71.5413L248.874 82.497C248.871 93.2641 249.139 105.34 248.839 115.995C248.823 116.536 248.793 117.075 248.747 117.614C249.803 121.023 248.698 129.252 244.255 130.035C239.917 130.8 234.72 130.489 230.229 130.493L210.16 130.496L187.724 130.491C184.344 130.498 180.961 130.513 177.583 130.513C175.694 130.511 173.715 130.614 172.011 129.683C170.281 128.722 169.012 127.104 168.493 125.193C168.188 124.069 167.978 120.704 168.394 119.719C168.007 114.98 168.552 109.614 168.259 105.021C169.76 103.449 172.068 101.289 171.717 98.9082C171.421 96.9084 170.298 96.163 168.341 96.5683Z" fill="var(--fill-0, #FBD996)"/>
<path id="Vector_3" d="M168.394 119.719C170.554 117.457 172.739 114.58 174.763 112.139C181.389 104.151 187.809 95.9736 194.492 88.036C198.17 83.6674 201.774 89.6423 203.857 92.3368L211.527 102.201C212.603 103.585 215.305 107.469 216.749 108.145C218.4 108.228 219.239 106.001 220.157 105.192C223.127 102.571 227.763 92.025 232.493 97.3702C234.431 99.5591 236.267 101.887 238.002 104.06L248.747 117.614C249.803 121.024 248.698 129.253 244.255 130.035C239.917 130.8 234.72 130.49 230.229 130.493L210.16 130.496L187.724 130.491C184.344 130.498 180.961 130.513 177.583 130.513C175.694 130.512 173.715 130.615 172.011 129.684C170.281 128.722 169.012 127.104 168.493 125.193C168.188 124.07 167.978 120.704 168.394 119.719Z" fill="var(--fill-0, #F8B22F)"/>
<path id="Vector_4" d="M217.001 73.0637C220.868 72.7841 224.242 75.6637 224.574 79.527C224.905 83.3904 222.072 86.8033 218.214 87.1872C215.671 87.4401 213.189 86.3049 211.718 84.2161C210.244 82.1272 210.011 79.4081 211.106 77.0989C212.199 74.7898 214.451 73.248 217.001 73.0637Z" fill="var(--fill-0, #F8B22F)"/>
<path id="Vector_5" d="M153.296 43.8598L153.293 35.998C153.3 31.8429 152.786 27.3637 155.859 24.1247C159.162 20.6432 163.404 21.369 167.898 21.3704L259.205 21.3829L285.836 21.3852L293.832 21.3709C297.49 21.3636 300.573 21.0887 303.474 23.8951C306.381 26.7068 306.376 29.6801 306.371 33.4194L306.347 43.8805L153.296 43.8598Z" fill="var(--fill-0, #F8B22F)"/>
<path id="Vector_6" d="M166.462 29.4476C168.415 29.1391 170.247 30.4773 170.546 32.4315C170.845 34.3857 169.496 36.2101 167.542 36.4993C165.599 36.7865 163.789 35.4507 163.494 33.5102C163.196 31.5697 164.523 29.754 166.462 29.4476Z" fill="var(--fill-0, #FFFFFE)"/>
<path id="Vector_7" d="M191.018 29.4497C192.962 29.1083 194.812 30.4151 195.142 32.3618C195.471 34.3088 194.152 36.1513 192.204 36.4681C190.273 36.7821 188.45 35.4779 188.124 33.5485C187.797 31.6192 189.09 29.7883 191.018 29.4497Z" fill="var(--fill-0, #FFFFFE)"/>
<path id="Vector_8" d="M179.19 29.4528C181.11 29.4051 182.716 30.8988 182.809 32.8168C182.9 34.7347 181.444 36.3755 179.53 36.512C178.251 36.6032 177.023 35.9945 176.32 34.9214C175.617 33.8482 175.553 32.4791 176.148 31.3436C176.744 30.2083 177.908 29.4845 179.19 29.4528Z" fill="var(--fill-0, #FFFFFE)"/>
<path id="Vector_9" d="M168.342 96.5684C170.299 96.1631 171.422 96.9085 171.718 98.9083C172.069 101.289 169.762 103.45 168.26 105.021C167.048 106.23 159.175 113.943 158.662 114.989C159.797 114.968 161.027 115.323 161.911 116.075C163.475 117.404 162.494 119.915 162.701 120.907C165.661 122.007 166.063 124.054 165.236 126.805C168.478 128.386 167.824 132.37 165.573 134.48C164.426 135.716 163.514 136.119 162.519 137.049C161.47 140.193 158.594 143.424 155.947 145.38C155.07 146.027 153.991 146.554 153.237 147.113C152.789 148.247 152.441 149.632 151.938 150.646C151.597 151.489 151.183 152.499 150.769 153.309C150.375 153.718 148.936 153.376 148.469 153.229C144.198 151.884 137.966 148.073 135.711 144.145C134.534 144.025 134.813 142.155 134.544 141.467L134.992 141.248C135.878 141.086 136.281 141.156 137.168 141.222C139.236 137.654 138.651 136.385 139.257 132.392C140.945 121.268 145.844 115.772 153.411 108.344C154.901 107.146 156.293 105.722 157.751 104.516C161.056 101.779 164.67 98.7613 168.342 96.5684Z" fill="var(--fill-0, #FBC08B)"/>
<path id="Vector_10" d="M162.702 120.907C165.661 122.007 166.064 124.054 165.236 126.805C168.478 128.386 167.824 132.37 165.574 134.48C163.967 134.96 159.826 139.063 158.204 135.586C157.196 133.426 161.054 131.856 162.34 130.635C163.712 129.332 164.66 128.668 165.403 126.767L165.491 126.534C163.958 127.962 158.098 134.732 155.474 131.54C153.849 129.565 157.643 127.181 158.757 126.055C159.677 125.12 162.563 122.263 162.702 120.907Z" fill="var(--fill-0, #FBC08B)"/>
<path id="Vector_11" d="M153.965 119.815C155.1 118.345 156.61 116.289 158.018 115.053C158.268 114.833 158.273 114.919 158.661 114.988C159.797 114.968 161.027 115.323 161.91 116.075C163.475 117.404 162.493 119.915 162.701 120.907C162.562 122.263 159.677 125.12 158.756 126.054C157.643 127.181 153.848 129.565 155.473 131.54C158.097 134.731 163.958 127.962 165.49 126.534L165.402 126.767C164.659 128.668 163.711 129.332 162.339 130.635C161.054 131.856 157.195 133.425 158.204 135.586C159.825 139.063 163.966 134.96 165.573 134.48C164.426 135.716 163.514 136.118 162.518 137.049C162.309 137.157 162.098 137.259 161.882 137.355C159.771 138.284 158.011 137.605 157.085 135.514C157.149 134.779 157.364 134.025 157.54 133.302C156.685 132.145 153.09 133.583 155.139 128.202C154.005 128.058 153.221 127.925 152.106 127.681L151.111 128.731C150.405 129.354 149.871 129.822 148.942 129.996C148.999 129.715 150.562 128.578 150.892 128.195C151.339 127.675 151.632 127.24 152.012 126.678C154.505 127.572 157.938 127.105 159.015 124.208C159.957 121.677 153.367 120.469 151.378 119.903L151.196 119.984L150.892 120.126C148.748 121.116 146.307 122.887 144.507 123.584C146.702 121.625 148.743 120.178 151.476 119.099C152.27 119.292 153.171 119.582 153.965 119.815Z" fill="var(--fill-0, #F19D61)"/>
<path id="Vector_12" d="M158.661 114.989C159.797 114.968 161.027 115.323 161.91 116.075C163.475 117.405 162.493 119.915 162.701 120.907C161.77 121.086 161.054 122.718 160.043 123.404C159.418 123.093 159.563 122.297 159.07 121.762C158.053 120.652 156.08 120.429 154.708 120.175C155.517 119.013 158.56 115.744 158.661 114.989Z" fill="var(--fill-0, #FBC08B)"/>
<path id="Vector_13" d="M151.11 128.731L152.105 127.682C153.22 127.925 154.004 128.058 155.138 128.202C153.089 133.583 156.684 132.145 157.539 133.302C157.363 134.026 157.148 134.779 157.084 135.514C154.825 137.159 153.124 136.512 151.274 137.906C152.095 135.625 153.168 130.963 151.436 128.961L151.11 128.731Z" fill="var(--fill-0, #F5B17D)"/>
<path id="Vector_14" d="M151.438 128.96C153.169 130.962 152.097 135.625 151.276 137.906C150.608 139.266 148.917 140.596 147.755 141.511C150.618 138.165 151.858 136.161 151.666 131.544C151.635 130.8 151.456 129.935 151.443 129.266L151.438 128.96Z" fill="var(--fill-0, #F19D61)"/>
<path id="Vector_15" d="M134.992 141.248C135.613 141.245 136.202 141.152 136.67 141.513C136.826 142.382 136.105 143.182 135.711 144.145C134.534 144.025 134.813 142.155 134.544 141.468L134.992 141.248Z" fill="var(--fill-0, #E18E0D)"/>
<path id="Vector_16" d="M153.236 147.114C153.516 147.788 153.55 151.636 153.217 152.275C152.852 151.738 152.352 151.157 151.937 150.646C152.44 149.633 152.788 148.247 153.236 147.114Z" fill="var(--fill-0, #FFFFFE)"/>
<path id="Vector_17" d="M259.059 117.111C261.81 116.957 264.381 120.138 266.79 121.313C271.505 124.815 277.043 127.846 281.438 131.684C283.994 133.916 275.839 136.443 274.487 137.035C275.67 138.827 280.441 145.12 280.179 146.948C280.017 148.092 279.066 149.001 278.155 149.619C277.45 150.097 276.648 150.393 275.791 150.195C273.955 149.77 270 142.339 268.924 140.579C268.15 141.38 267.358 142.223 266.584 143.002C265.552 144.041 263.487 146.664 261.929 145.117C261.627 144.83 261.342 144.328 261.276 143.909C260.696 140.245 260.24 136.491 259.752 132.814L258.618 124.239C258.385 122.453 258.071 120.515 258.067 118.718C258.066 117.869 258.437 117.651 259.059 117.111Z" fill="var(--fill-0, #33312D)"/>
<path id="Vector_18" d="M226.546 143.784C228.376 143.681 230.737 143.971 230.822 146.33C230.842 147.107 230.531 147.855 229.967 148.391C228.568 149.736 224.309 149.278 222.307 149.269L211.427 149.241L173.24 149.229C171.399 149.288 169.721 149.349 168.495 147.666C167.356 146.102 168.738 144.706 170.003 143.907C171.857 143.755 174.556 143.829 176.471 143.829L187.65 143.828C200.518 143.828 213.699 143.961 226.546 143.784Z" fill="var(--fill-0, #FBD996)"/>
<path id="Vector_19" d="M271.665 65.2298C276.176 65.1715 280.791 65.2656 285.316 65.2406C288.007 65.2257 292.219 65.0951 294.809 65.3143C296.284 66.3774 297.456 67.9444 295.922 69.6977C294.731 71.0581 291.849 70.7497 290.141 70.7562C287.951 70.7643 285.664 70.7298 283.435 70.7146L268.507 70.7242C266.671 70.7252 260.542 71.0655 259.322 70.0936C258.698 69.5909 258.306 68.8564 258.237 68.0591C258.004 65.2602 261.337 65.1791 263.279 65.2147C266.064 65.2661 268.876 65.235 271.665 65.2298Z" fill="var(--fill-0, #FBD996)"/>
<path id="Vector_20" d="M260.623 82.1086C270.429 81.9436 284.423 82.1433 294.563 82.2365C296.764 82.2568 297.747 85.7129 294.556 87.5221C293.539 87.6252 291.257 87.5627 290.165 87.5639L281.61 87.5732C274.837 87.5791 267.993 87.5956 261.216 87.5319C260.694 87.527 260.034 87.4419 259.578 87.169C258.92 86.7855 258.452 86.1481 258.282 85.4075C257.875 83.6349 258.966 82.4779 260.623 82.1086Z" fill="var(--fill-0, #FBD996)"/>
<path id="Vector_21" d="M260.152 98.9759C263.169 98.8678 266.626 98.9472 269.669 98.9455L287.221 98.9472C289.775 100.577 289.849 102.909 287.074 104.323C285.411 104.433 282.951 104.358 281.226 104.36L270.024 104.37C267.386 104.372 264.747 104.367 262.1 104.374C260.678 104.434 259.214 104.328 258.451 102.889C257.486 101.071 258.679 99.775 260.152 98.9759Z" fill="var(--fill-0, #FBD996)"/>
<path id="Vector_22" d="M259.06 117.111C259.152 116.82 259.289 116.095 259.691 116.07C267.89 115.562 276.175 115.981 284.412 115.85C288.24 115.79 288.639 120.044 285.549 121.181C285.222 121.299 282.256 121.24 281.653 121.238L271.827 121.223C270.786 121.22 267.615 121.16 266.791 121.312C264.381 120.138 261.81 116.957 259.06 117.111Z" fill="var(--fill-0, #FBD996)"/>
<path id="Vector_23" d="M51.0967 99.5L51.8681 99.6031C52.2725 100.203 52.1407 100.465 51.9895 101.25C51.7735 102.919 51.5768 104.629 51.1234 106.253C54.1716 108.731 56.7236 110.61 60.1763 112.654C64.2893 115.089 69.2813 117.211 73.079 120.035C74.5128 121.103 76.3614 124.308 77.2533 125.861C78.3641 121.851 79.4805 118.043 81.558 114.398C80.1691 112.603 80.4585 111.754 80.6207 109.473C80.7412 108.442 80.8783 107.415 81.0317 106.388C81.0861 105.533 81.0243 104.967 81.6134 104.386C85.7875 106.077 87.0796 107.579 89.0443 111.556L89.1605 111.634C95.7344 113.784 103.786 116.66 108.879 121.52C117.122 129.388 120.181 142.04 124.231 152.366C124.552 153.186 124.906 154.541 125.345 155.233L125.441 155.869C127.04 153.236 132.752 142.682 134.543 141.468C134.812 142.155 134.534 144.026 135.71 144.145C137.965 148.073 144.197 151.885 148.468 153.23C148.935 153.377 150.374 153.718 150.768 153.309C151.182 152.5 151.596 151.49 151.937 150.647C152.353 151.157 152.853 151.738 153.218 152.275L153.348 152.581C153.427 153.437 153.3 153.841 153.138 154.678C149.687 166.394 141.335 192.182 130.276 198.247C127.025 200.029 120.62 200.068 117.117 199.044C115.605 198.602 112.873 197.196 112.015 195.871C109.185 193.714 106.405 190.159 104.228 187.36C104.089 188.374 104.045 191.033 103.974 192.241L103.303 204.162L0 204.202C0.419491 200.465 0.571711 195.02 0.841686 191.116C1.4455 182.361 2.25035 173.62 3.25541 164.9C4.56338 153.728 6.03473 141.137 10.9608 130.878C16.4215 119.505 30.212 112.815 41.8349 109.155C42.758 107.192 43.8386 104.881 45.0077 103.065C46.6576 100.504 48.3695 100.056 51.0967 99.5Z" fill="var(--fill-0, #F8B22F)"/>
<path id="Vector_24" d="M104.227 187.36C104.178 183.805 104.635 179.2 104.839 175.534L106.32 149.56C106.368 148.59 106.649 140.79 106.795 140.554C107.312 143.684 107.407 150.78 107.549 154.21C107.959 164.081 108.049 173.991 109.278 183.824C109.609 186.47 110.105 189.19 110.858 191.742C111.278 193.167 111.907 194.199 112.234 195.679L112.014 195.871C109.184 193.714 106.404 190.159 104.227 187.36Z" fill="var(--fill-0, #E18E0D)"/>
<path id="Vector_25" d="M125.346 155.233L125.441 155.868C121.737 162.123 118.328 168.321 114.729 174.564C116.138 167.549 120.373 160.347 125.346 155.233Z" fill="var(--fill-0, #E18E0D)"/>
<path id="Vector_26" d="M81.0315 106.388C82.1423 107.415 82.9585 107.925 83.0122 109.562C83.0488 110.677 82.0588 113.37 81.5577 114.397C80.1688 112.603 80.4582 111.753 80.6204 109.473C80.7409 108.442 80.8781 107.415 81.0315 106.388Z" fill="var(--fill-0, #E18E0D)"/>
<path id="Vector_27" d="M51.1244 106.252C48.1871 103.963 47.324 101.747 51.9906 101.25C51.7745 102.919 51.5779 104.629 51.1244 106.252Z" fill="var(--fill-0, #E18E0D)"/>
<path id="Vector_28" d="M89.0445 111.556L89.1607 111.633C89.21 111.882 89.1994 111.941 89.3023 112.142C91.5237 116.504 91.7739 123.152 89.1103 127.372C90.4193 123.356 90.4474 119.204 89.8008 115.048C89.6395 114.01 88.9973 112.411 89.0445 111.556Z" fill="var(--fill-0, #E18E0D)"/>
<path id="Vector_29" d="M150.769 153.309C151.182 152.5 151.596 151.49 151.938 150.646C152.353 151.157 152.853 151.738 153.218 152.275L153.348 152.581C152.863 153.047 152.558 153.444 151.922 153.63C151.294 153.576 151.333 153.588 150.769 153.309Z" fill="var(--fill-0, #E18E0D)"/>
<path id="Vector_30" d="M42.2432 110.554C42.4363 110.77 42.4103 110.711 42.5322 110.956C46.7106 119.359 55.1893 126.284 63.3029 130.869C61.2064 130.751 57.1708 128.07 55.4716 126.916C50.8567 123.782 43.229 116.308 42.2432 110.554Z" fill="var(--fill-0, #E18E0D)"/>
<path id="Vector_31" d="M71.7687 120.028C71.9853 120.158 72.0542 120.234 72.2461 120.398C72.0123 121.135 65.5556 129.092 64.541 130.229L64.3133 130.329C64.2601 129.988 65.4234 127.663 65.666 127.236C67.0919 124.732 68.85 120.963 71.7687 120.028Z" fill="var(--fill-0, #E18E0D)"/>
<path id="Vector_32" d="M130.569 151.282C131.24 151.817 132.562 153.831 133.58 154.784C138.52 159.401 141.948 160.412 147.959 162.397C141.782 162.8 132.824 157.036 130.569 151.282Z" fill="var(--fill-0, #E18E0D)"/>
<path id="Vector_33" d="M80.6124 119.15C83.2743 119.011 88.6935 125.043 88.7366 126.854C87.5731 126.056 81.0238 120.62 80.4639 119.697L80.6124 119.15Z" fill="var(--fill-0, #E18E0D)"/>
<path id="Vector_34" d="M77.4668 129.482C78.0838 130.05 78.2769 134.37 78.187 135.308C77.1181 134.639 77.1168 130.63 77.4668 129.482Z" fill="var(--fill-0, #E18E0D)"/>
<path id="Vector_35" d="M38.9825 21.0857C39.7796 17.7703 40.5971 15.4909 42.8115 12.8891C49.9834 4.46313 61.3029 1.6676 71.9463 3.35215C76.6402 4.09517 81.639 5.26376 86.3698 4.63005C92.6681 3.64865 97.6086 -1.5574 104.366 0.460817C116.373 4.04736 117.091 18.7108 109.631 27.0381C113.634 34.8167 111.861 42.0665 108.065 49.481C107.764 50.9062 108.358 56.0105 108.42 57.6828C108.921 71.2888 111.201 87.2448 99.2174 96.9404C94.1844 101.067 88.0229 102.297 81.7353 102.108C81.6255 102.728 81.3378 103.808 81.5535 104.33L81.6135 104.386C81.0244 104.967 81.0862 105.533 81.0318 106.388C80.8784 107.415 80.7412 108.442 80.6208 109.472C80.4586 111.753 80.1692 112.603 81.5581 114.397C79.4806 118.043 78.3642 121.851 77.2534 125.86C76.3615 124.308 74.5129 121.103 73.0791 120.035C69.2813 117.21 64.2893 115.088 60.1764 112.654C56.7236 110.609 54.1717 108.731 51.1234 106.252C51.5769 104.629 51.7735 102.919 51.9896 101.25C52.1408 100.464 52.2726 100.202 51.8681 99.6027L51.0967 99.4996L51.9045 99.3881C52.5782 98.736 52.4375 89.9631 52.5419 88.3862C48.6746 85.95 46.5916 83.6167 44.1016 79.858C36.2125 77.4124 32.4034 70.9926 34.0623 62.9106C28.5883 54.1562 23.4407 42.2908 27.9671 32.144C29.7515 28.1442 32.3 25.8518 36.3517 24.3485C34.5729 23.4387 31.6038 23.2441 31.1416 22.5391C31.9672 19.419 36.6419 19.7033 38.9825 21.0857Z" fill="var(--fill-0, #FBC08B)"/>
<path id="Vector_36" d="M38.9825 21.0857C39.7796 17.7703 40.5971 15.4909 42.8115 12.8891C49.9834 4.46313 61.3029 1.6676 71.9463 3.35215C76.6402 4.09517 81.639 5.26376 86.3698 4.63005C92.6681 3.64865 97.6086 -1.5574 104.366 0.460817C116.373 4.04736 117.091 18.7108 109.631 27.0381C113.634 34.8167 111.861 42.0665 108.065 49.481C107.609 48.6749 107.107 42.3268 106.799 40.6766C106.042 36.6198 105.025 34.7826 103.753 31.1509C99.5313 32.9923 95.5795 33.7892 91.0915 34.4406C86.4876 35.1088 81.9931 35.0845 77.3549 35.0387C71.0632 35.3676 65.5931 35.629 59.3474 34.0536C62.8004 41.4549 59.6667 49.2588 55.0965 55.3268C54.9881 58.382 54.8769 61.4072 54.9277 64.4664C54.9387 65.131 54.6595 66.2091 54.1144 66.6772C50.7955 69.0905 48.9471 62.0748 47.7352 60.2017C47.0537 59.1614 45.4085 58.2551 44.2644 57.8502C39.4986 56.1633 35.7535 58.4562 34.0623 62.9106C28.5883 54.1562 23.4407 42.2908 27.9671 32.144C29.7515 28.1442 32.3 25.8518 36.3517 24.3485C34.5729 23.4387 31.6038 23.2441 31.1416 22.5391C31.9672 19.419 36.6419 19.7033 38.9825 21.0857Z" fill="var(--fill-0, #54321A)"/>
<path id="Vector_37" d="M36.3517 24.3489C34.5729 23.4391 31.6038 23.2445 31.1416 22.5395C31.9672 19.4194 36.642 19.7037 38.9825 21.086C39.2755 21.8611 40.1798 24.1571 38.3091 24.42C38.2174 24.433 36.4336 24.3712 36.3517 24.3489Z" fill="var(--fill-0, #54321A)"/>
<path id="Vector_38" d="M59.3467 93.1289C64.4203 97.064 71.1391 100.001 77.3992 101.453C78.6276 101.736 80.418 101.887 81.7358 102.108C81.626 102.728 81.3383 103.808 81.554 104.33L81.614 104.386C81.0249 104.967 81.0867 105.533 81.0323 106.388C80.8789 107.415 80.7417 108.442 80.6213 109.473C72.618 109.31 63.2147 99.5672 59.3467 93.1289Z" fill="var(--fill-0, #F19D61)"/>
<path id="Vector_39" d="M44.1025 79.858C46.4913 79.8963 47.3259 79.9987 49.5938 79.3403C50.4676 82.1058 52.3358 85.7726 52.5429 88.3862C48.6756 85.95 46.5926 83.6167 44.1025 79.858Z" fill="var(--fill-0, #54321A)"/>
<path id="Vector_40" d="M78.1128 58.048C83.2543 57.7933 83.9362 66.3757 79.414 68.7191C74.6194 68.8592 73.6199 60.4665 78.1128 58.048Z" fill="var(--fill-0, #33312D)"/>
<path id="Vector_41" d="M76.8569 45.2422C78.8868 45.0491 81.8943 45.1194 83.0928 47.0863C83.7022 48.0863 83.5929 49.8735 82.1456 50.0227C81.6727 50.0715 80.6903 49.9225 80.2015 49.8375C77.8988 49.4378 76.1656 49.8732 74.0443 50.7379C72.3777 51.6017 71.3233 53.0098 69.871 53.2534C69.2468 53.0789 69.4792 53.2546 69.1347 52.7289C68.587 48.8364 73.7899 46.1915 76.8569 45.2422Z" fill="var(--fill-0, #54321A)"/>
<path id="Vector_42" d="M100.411 56.3433C104.96 56.4759 105.343 64.9252 101.422 66.899C96.7104 66.853 96.4957 58.3627 100.411 56.3433Z" fill="var(--fill-0, #33312D)"/>
<path id="Vector_43" d="M99.165 44.0716C99.7896 44.0258 100.516 44.0072 101.138 44.0646C103.546 44.2861 106.768 46.6292 106.391 49.3357C105.474 50.6295 104.039 49.3298 102.754 48.7601C99.4983 47.6165 98.7617 49.2511 95.9089 48.8637C95.692 48.7307 95.4205 48.5902 95.3657 48.3312C94.7457 45.3998 97.4232 44.5286 99.165 44.0716Z" fill="var(--fill-0, #54321A)"/>
<path id="Vector_44" d="M81.0588 80.9365C81.9914 81.2065 82.4614 81.7894 83.2833 82.2501C86.3049 83.9436 89.7319 85.0005 93.1448 83.8616C94.2911 83.479 95.4876 82.626 96.3007 82.4356C97.1763 82.9417 96.7482 83.7464 96.3429 84.3773C93.0782 87.3308 88.0822 86.7901 84.3182 85.1877C82.7918 84.5379 81.1145 83.7626 80.458 82.1512C80.5259 81.4138 80.5249 81.6246 81.0588 80.9365Z" fill="var(--fill-0, #BA5003)"/>
<path id="Vector_45" d="M40.428 63.4805C43.8312 63.5654 44.8261 65.0789 46.5134 67.7506C43.8432 69.9328 44.8028 71.1443 46.3666 73.5038C45.8783 73.6699 45.8237 73.5319 45.2116 73.3445C43.1093 71.6209 43.1767 69.8551 44.8787 67.8546C42.705 64.7525 41.1137 64.5925 37.6299 65.101C38.6071 64.3723 39.2629 63.8562 40.428 63.4805Z" fill="var(--fill-0, #F19D61)"/>
<path id="Vector_46" d="M93.1787 61.7554C93.7482 63.3213 94.3301 65.0988 95.1817 66.5411C96.5554 68.8675 100.338 71.3548 98.9014 74.4597C98.2741 75.8157 96.39 76.8268 95.0135 77.2708C94.6688 77.2316 94.5429 77.1978 94.2052 77.1203L94.2066 76.9157C94.6955 76.5405 95.1762 76.1988 95.6786 75.842C97.0697 74.4445 97.2908 74.2115 98.0359 72.3957C97.5911 71.4239 96.8041 70.1959 96.1309 69.3559C94.1434 66.8763 93.6063 64.8325 93.1787 61.7554Z" fill="var(--fill-0, #F19D61)"/>
<path id="Vector_47" d="M89.8408 76.0401C91.3287 75.9445 94.3153 75.6644 95.6792 75.8418C95.1768 76.1986 94.6961 76.5402 94.2072 76.9154L94.2059 77.12C94.5436 77.1976 94.6694 77.2314 95.0141 77.2706C92.8953 77.466 91.6634 76.9176 89.8408 76.0401Z" fill="var(--fill-0, #F5B17D)"/>
</g>
<defs>
<linearGradient id="paint0_linear_0_4" x1="234.579" y1="173.523" x2="225.465" y2="39.3137" gradientUnits="userSpaceOnUse">
<stop stop-color="#FCE1A7"/>
<stop offset="1" stop-color="#FCEED3"/>
</linearGradient>
</defs>
</svg>
