<svg preserveAspectRatio="none" width="100%" height="100%" overflow="visible" style="display: block;" viewBox="0 0 340 200" fill="none" xmlns="http://www.w3.org/2000/svg">
<g id="Frame 2147228227">
<path id="Vector" d="M149.083 42.9504C149.002 35.4803 147.584 26.4383 155.292 22.1039C158.6 20.2438 160.016 20.2249 163.778 20.2051L253.999 20.2251L281.439 20.2029C285.758 20.1962 290.435 20.0893 294.727 20.2812C297.186 20.3914 300.509 22.1435 302.217 23.8393C307.438 28.9587 305.844 36.3523 306.089 43.022C306.133 51.005 306.133 58.9884 306.091 66.9714V111.864L306.095 133.626C306.097 135.459 306.282 141.646 306.117 142.981C305.797 145.464 304.678 147.776 302.928 149.562C299.852 152.717 296.921 152.89 292.725 152.904L204.981 152.897L176.166 152.921C171.01 152.922 165.574 153.117 160.452 152.701C158.211 152.517 157.288 151.774 155.573 150.376C155.162 150.042 155.484 150.051 154.893 149.864C154.907 148.801 154.958 147.99 154.726 146.941L154.433 147.041C153.096 147.512 152.44 147.668 151.045 147.952C150.827 148.506 150.216 150.32 149.655 150.422C143.324 151.567 136.876 147.912 134.585 142.245C135.093 140.744 135.652 139.225 135.956 137.673L136.011 136.186C134.611 126.011 137.289 122.227 139.901 112.971C140.58 110.563 140.32 106.136 140.613 103.495C140.995 100.051 143.213 97.9851 146.395 100.36C149.019 102.547 148.945 109.456 148.224 112.415C147.991 113.778 147.575 115.886 147.557 117.204L148.482 116.918L149.122 116.58C149.071 113.949 149.277 111.07 149.263 108.368L149.24 64.6475L149.247 51.6391C149.246 48.9238 149.317 45.6044 149.083 42.9504Z" fill="var(--fill-0, #FEFEFE)"/>
<path id="Vector_2" d="M149.084 42.9504C149.003 35.4803 147.585 26.4383 155.293 22.1039C158.601 20.2438 160.017 20.2249 163.779 20.2051L254 20.2251L281.44 20.2029C285.759 20.1962 290.436 20.0893 294.728 20.2812C297.187 20.3914 300.51 22.1435 302.218 23.8393C307.439 28.9587 305.845 36.3523 306.09 43.022L304.312 42.8707L154.068 42.8759C152.407 42.8089 150.743 42.834 149.084 42.9504Z" fill="var(--fill-0, #499D52)"/>
<path id="Vector_3" d="M177.888 28.0509C179.933 27.4666 182.066 28.6539 182.65 30.703C183.235 32.7521 182.05 34.8871 180.002 35.4725C177.955 36.0579 175.823 34.8706 175.239 32.8208C174.654 30.7711 175.841 28.6354 177.888 28.0509Z" fill="var(--fill-0, #FEFEFE)"/>
<path id="Vector_4" d="M165.113 28.0283C167.195 27.5518 169.263 28.8667 169.721 30.9556C170.178 33.0443 168.846 35.1055 166.757 35.5444C164.694 35.9781 162.666 34.665 162.215 32.6025C161.764 30.5399 163.057 28.4987 165.113 28.0283Z" fill="var(--fill-0, #FEFEFE)"/>
<path id="Vector_5" d="M190.791 28.0529C192.143 27.7411 193.559 28.1867 194.488 29.2173C195.419 30.2481 195.72 31.7024 195.274 33.0184C194.829 34.3341 193.706 35.3055 192.343 35.5567C190.296 35.9334 188.325 34.6044 187.902 32.5642C187.481 30.5242 188.764 28.5204 190.791 28.0529Z" fill="var(--fill-0, #FEFEFE)"/>
<path id="Vector_6" d="M136.011 136.186C134.611 126.011 137.289 122.227 139.901 112.971C140.58 110.563 140.32 106.136 140.613 103.495C140.995 100.051 143.213 97.9851 146.395 100.36C149.019 102.547 148.945 109.456 148.224 112.415C147.991 113.778 147.575 115.886 147.557 117.204L148.482 116.919L149.122 116.581L149.61 116.397C153.57 115.194 161.903 114.65 163.309 119.859C163.584 120.873 163.335 122.216 163.164 123.256C164.836 125.715 165.061 127.49 163.878 130.309C164.72 133.377 164.669 134.285 163.164 137.14C163.598 139.065 163.85 141.053 162.119 142.504C160.527 144.237 157.583 145.62 155.441 146.56C155.212 146.674 154.929 146.8 154.726 146.942L154.433 147.042C153.096 147.512 152.44 147.669 151.045 147.952C150.827 148.506 150.216 150.32 149.655 150.422C143.324 151.567 136.876 147.912 134.585 142.245C135.093 140.744 135.652 139.225 135.956 137.673L136.011 136.186Z" fill="var(--fill-0, #FBB378)"/>
<path id="Vector_7" d="M149.61 116.397C153.569 115.194 161.903 114.65 163.309 119.859C163.583 120.873 163.335 122.216 163.164 123.255C164.835 125.714 165.06 127.49 163.877 130.309C164.719 133.376 164.669 134.285 163.164 137.14C163.598 139.065 163.85 141.053 162.119 142.503C160.64 142.509 159.908 142.881 158.479 143.137C157.32 143.346 156.173 143.343 154.995 143.348C155.526 143.441 156 143.406 156.26 143.721C153.264 145.496 143.987 142.669 146.812 137.562C147.132 136.984 145.859 135.855 145.501 135.128C144.706 133.514 145.847 132.573 145.709 130.983C144.482 127.973 143.613 128.179 145.663 124.653C144.38 122.448 144.377 119.721 146.307 117.885C146.576 117.805 147.274 117.367 147.557 117.204L148.482 116.918L149.122 116.58L149.61 116.397Z" fill="var(--fill-0, #FCBD85)"/>
<path id="Vector_8" d="M148.482 116.918C147.952 117.567 146.785 118.427 146.467 118.987C145.85 120.073 145.529 122.231 146.12 123.395C147.156 124.11 148.826 122.836 150.11 122.583C151.761 122.26 158.15 121.86 159.181 123.059C157.762 124.001 151.761 121.707 146.567 125.135C145.854 126.42 145.485 127.786 145.866 129.26C146.426 131.425 149.465 129.676 150.828 129.58C151.96 129.5 158.908 129.276 159.363 130.209C157.414 131.706 146.984 128.417 146.31 133.567C146.111 135.094 146.959 136.319 148.564 136.424C150.309 136.539 158.49 136.379 159.215 137.144C157.72 138.552 143.085 134.954 148.457 141.433C149.462 142.645 153.364 143.383 154.995 143.348C155.526 143.441 156 143.407 156.26 143.721C153.264 145.497 143.987 142.669 146.812 137.562C147.132 136.984 145.859 135.855 145.501 135.128C144.706 133.515 145.847 132.573 145.709 130.983C144.482 127.973 143.613 128.179 145.663 124.653C144.38 122.449 144.377 119.721 146.307 117.885C146.576 117.805 147.274 117.367 147.557 117.204L148.482 116.918Z" fill="var(--fill-0, #EA7C44)"/>
<path id="Vector_9" d="M146.306 117.885C146.103 117.602 146.043 117.465 145.878 117.156C145.856 115.913 147.258 113.618 147.905 112.417L148.223 112.415C147.99 113.778 147.574 115.886 147.556 117.204C147.274 117.367 146.576 117.805 146.306 117.885Z" fill="var(--fill-0, #F89A5E)"/>
<path id="Vector_10" d="M306.09 43.0221C306.134 51.005 306.134 58.9884 306.092 66.9714V111.864L306.095 133.626C306.097 135.459 306.282 141.646 306.117 142.981C305.798 145.464 304.678 147.776 302.929 149.562C299.852 152.717 296.922 152.89 292.726 152.904L204.982 152.897L176.166 152.921C171.01 152.922 165.575 153.117 160.452 152.701C158.212 152.517 157.289 151.774 155.573 150.376C155.162 150.042 155.485 150.051 154.893 149.864C154.907 148.801 154.959 147.99 154.726 146.941C154.929 146.8 155.212 146.674 155.441 146.56C157.068 147.817 159.405 148.666 161.451 148.693C167.827 148.777 174.192 148.568 180.571 148.563L226.701 148.623C238.572 148.699 250.533 148.466 262.308 148.577L284.118 148.703C287.759 148.708 291.499 148.743 295.099 148.673C298.261 148.452 301.86 146.127 303.489 143.443C305.589 139.985 305.092 136.068 305.081 132.246L305.056 119.052L305.072 78.8745L305.09 53.058C305.094 51.6807 305.192 43.8588 305.012 43.1594L304.311 42.8707L306.09 43.0221Z" fill="var(--fill-0, #E9E8E7)"/>
<path id="Vector_11" d="M149.084 42.9506C150.742 42.8341 152.406 42.809 154.067 42.8761C152.83 43.0891 150.995 43.0476 149.69 43.0591C149.847 47.8766 149.702 52.3242 149.693 57.1099L149.681 85.815L149.77 107.07C149.761 109.031 149.846 114.669 149.61 116.397L149.122 116.581C149.072 113.949 149.278 111.07 149.264 108.368L149.24 64.6477L149.248 51.6393C149.247 48.9239 149.318 45.6045 149.084 42.9506Z" fill="var(--fill-0, #E9E8E7)"/>
<path id="Vector_12" d="M224.807 60.9126C243.155 59.3287 259.316 72.9241 260.922 91.2936C262.53 109.664 248.975 125.867 230.633 127.501C212.256 129.14 196.037 115.534 194.427 97.1274C192.817 78.7221 206.425 62.4997 224.807 60.9126Z" fill="var(--fill-0, #499D52)"/>
<path id="Vector_13" d="M242.184 79.5871C242.493 79.5553 242.802 79.5317 243.11 79.5166C246.046 79.397 248.329 82.7993 246.163 85.3177C239.413 93.2492 232.227 100.848 225.212 108.544C221.35 112.782 215.423 104.381 212.612 101.455C211.168 99.9826 208.258 97.4183 208.355 95.4719C208.375 92.7695 211.777 90.6704 213.984 92.5768C216.897 95.0957 219.761 98.3034 222.492 101.044C226.094 96.7913 230.033 92.5459 233.742 88.3769C235.6 86.2889 240.097 80.7241 242.184 79.5871Z" fill="var(--fill-0, #FEFEFE)"/>
<path id="Vector_14" d="M62.6264 94.5778C64.3552 95.6609 66.0172 97.7 67.6331 99.0376C72.7493 103.274 78.5913 107 85.4024 104.877L85.3487 106.371L85.9779 106.841L88.2798 107.817C88.7156 107.487 88.7043 107.51 89.0074 107.058C88.8163 106.794 88.7036 106.678 88.4682 106.463L88.5873 106.031C89.7081 105.696 93.5669 107.183 94.791 107.648L95.6815 107.828C101.242 108.446 103.892 108.995 108.948 111.263C111.643 112.819 113.842 114.411 115.87 116.802C122.131 124.183 126.283 135.845 129.368 144.944C130.748 140.914 131.416 137.546 136.012 136.187L135.958 137.673C135.653 139.225 135.094 140.745 134.586 142.246C136.877 147.912 143.325 151.567 149.656 150.422C150.218 150.32 150.828 148.507 151.046 147.952C152.441 147.669 153.097 147.512 154.434 147.042L154.727 146.942C154.959 147.99 154.908 148.801 154.894 149.864C154.473 152.438 153.864 153.93 152.92 156.332C154.861 160.647 153.637 165.25 152.258 169.557C148.003 182.842 141.003 200.547 123.694 196.881C116.909 195.444 112.2 191.233 108.472 185.552L107.607 199.98C100.552 199.92 93.4974 199.909 86.4427 199.945L51.22 199.958L0 200C1.9874 189.983 4.7773 179.147 7.34253 169.245C9.15243 162.086 11.1315 154.973 13.2777 147.91C15.5783 140.199 18.3847 130.782 22.6237 123.947C25.4398 119.405 28.9757 117.021 33.166 114.133C36.7126 111.499 44.806 109.462 49.1642 108.359L49.605 108.201C51.0326 107.499 54.5858 105.729 56.0619 106.323C56.6761 106.571 56.6742 106.932 56.9018 107.512C61.8974 105.662 62.1263 99.123 62.6264 94.5778Z" fill="var(--fill-0, #499D52)"/>
<path id="Vector_15" d="M62.6258 94.5778C64.3546 95.6609 66.0166 97.7 67.6325 99.0376C72.7486 103.274 78.5907 107 85.4018 104.877L85.3481 106.371L85.9773 106.841L88.2792 107.817C88.8282 107.981 89.6773 108.177 89.9659 108.733C90.351 109.526 89.7909 111.516 89.3964 112.264C84.4282 121.686 69.2698 119.091 61.8894 114.438C59.7577 113.093 56.7874 110.562 55.911 108.339C56.1558 107.743 56.1569 107.905 56.9012 107.512C61.8968 105.662 62.1256 99.123 62.6258 94.5778Z" fill="var(--fill-0, #FBB378)"/>
<path id="Vector_16" d="M85.3493 106.371L85.9785 106.841C85.9782 107.859 86.0268 108.286 85.7522 109.279L85.5824 109.309C85.2724 108.281 85.3464 107.447 85.3493 106.371Z" fill="var(--fill-0, #F89A5E)"/>
<path id="Vector_17" d="M88.2795 107.817C88.7153 107.487 88.704 107.51 89.0071 107.058C88.816 106.794 88.7033 106.678 88.4679 106.463L88.587 106.031C89.7078 105.696 93.5666 107.183 94.7907 107.648C95.581 108.888 95.5206 110.798 95.1901 112.186C92.4779 123.585 79.4051 126.024 69.5046 123.623C61.2865 121.631 52.8325 116.341 49.6047 108.201C51.0323 107.499 54.5855 105.729 56.0616 106.323C56.6758 106.571 56.6739 106.932 56.9015 107.512C56.1573 107.904 56.1562 107.743 55.9114 108.339C56.7877 110.562 59.758 113.093 61.8897 114.438C69.2702 119.09 84.4285 121.686 89.3967 112.264C89.7913 111.516 90.3513 109.526 89.9662 108.733C89.6777 108.177 88.8285 107.981 88.2795 107.817Z" fill="var(--fill-0, #499D52)"/>
<path id="Vector_18" d="M133.061 141.409C133.428 139.723 133.983 137.877 135.722 137.28L135.958 137.673C135.653 139.225 135.094 140.744 134.586 142.245C136.877 147.912 143.325 151.567 149.656 150.422C150.218 150.32 150.828 148.506 151.046 147.952C152.441 147.669 153.097 147.512 154.434 147.042C152.136 156.465 135.426 151.305 133.061 141.409Z" fill="var(--fill-0, #38823B)"/>
<path id="Vector_19" d="M94.79 107.648L95.6805 107.828C95.5502 108.518 95.8495 108.604 95.8965 109.284C96.3975 116.515 90.8885 121.871 84.432 123.941C76.6502 126.436 69.0409 124.98 61.8387 121.434C57.5752 119.315 49.9167 113.467 49.1632 108.358L49.604 108.2C52.8318 116.34 61.2857 121.631 69.5039 123.623C79.4044 126.023 92.4772 123.584 95.1894 112.186C95.5199 110.797 95.5803 108.887 94.79 107.648Z" fill="var(--fill-0, #38823B)"/>
<path id="Vector_20" d="M36.9881 199.869C36.5113 199.854 36.3075 199.912 35.9469 199.623C35.9825 198.758 36.7438 195.262 36.955 194.215L39.4242 182.18C41.0189 174.3 42.4807 166.396 43.8095 158.467C44.6618 153.218 45.6447 147.721 45.6474 142.392C45.6481 141.135 45.6712 139.899 45.7202 138.643C45.9559 139.984 46.2824 141.416 46.5621 142.758C49.7781 158.118 48.8153 173.775 47.4693 189.317C47.1744 192.719 46.851 196.436 46.3053 199.785C44.523 199.78 38.4375 199.652 36.9881 199.869Z" fill="var(--fill-0, #38823B)"/>
<path id="Vector_21" d="M36.9881 199.869C36.5113 199.854 36.3075 199.912 35.9469 199.623C35.9825 198.758 36.7438 195.262 36.955 194.215L39.4242 182.18C41.0189 174.3 42.4807 166.396 43.8095 158.467C44.6618 153.218 45.6447 147.721 45.6474 142.392C45.6481 141.135 45.6712 139.899 45.7202 138.643C45.9559 139.984 46.2824 141.416 46.5621 142.758L46.5279 143.005C46.0929 146.287 46.3786 149.638 45.8231 153.173C43.374 168.755 40.2556 184.445 36.9881 199.869Z" fill="var(--fill-0, #2C6D2C)"/>
<path id="Vector_22" d="M128.687 146.062L128.944 146.145C129.216 150.207 129.95 152.481 132.981 155.327C136.46 158.584 141.095 160.312 145.854 160.128C148.375 160.028 150.366 159.276 152.083 157.395L152.58 156.852L152.772 156.641L152.824 156.93C152.653 157.459 152.519 157.991 152.1 158.369C146.814 163.138 136.999 160.405 132.422 155.919C129.761 153.313 128.588 150.453 128.573 146.878C125.783 147.867 125.049 149.649 123.687 152.148C122.606 153.973 121.582 156.635 120.741 158.635C118.626 163.667 115.745 169.546 114.742 174.876L114.699 175.116L114.372 174.933C113.364 172.158 116.381 166.046 117.486 162.962C116.472 163.943 114.183 166.942 113.272 167.302L112.985 167.167C112.454 164.884 118.053 161.244 119.144 159.652C122.599 154.613 122.464 148.879 128.687 146.062Z" fill="var(--fill-0, #38823B)"/>
<path id="Vector_23" d="M18.7172 106.345C9.10837 96.5713 16.4712 85.7966 21.12 75.9252C22.3541 73.3055 23.3675 70.5868 24.1499 67.7983C25.8846 61.5814 26.4436 54.4248 27.2171 48.0492C28.4279 38.1727 31.4695 28.1713 37.1637 19.9266C45.6945 7.57505 61.1552 -1.30409 76.4103 0.157441C81.217 0.617782 85.1878 1.93828 89.1385 4.70032L89.3985 4.69288C109.695 4.18129 121.027 26.6577 119.96 44.5535C119.578 50.9719 119.35 58.0908 120.666 64.35C121.306 67.3021 122.152 70.2059 123.198 73.0396C125.458 79.1296 128.213 84.3805 128.269 91.0537C128.313 96.3223 126.594 101.069 122.834 104.813C120.642 106.996 118.346 108.411 115.196 108.411C113.325 110.065 111.457 111.074 108.948 111.263C103.892 108.995 101.243 108.446 95.6821 107.828L94.7916 107.648C93.5675 107.183 89.7087 105.696 88.5878 106.031L88.4688 106.463C88.7042 106.678 88.8169 106.794 89.008 107.058C88.7049 107.51 88.7162 107.486 88.2804 107.817L85.9785 106.841L85.3493 106.371L85.403 104.877C78.5919 106.999 72.7498 103.274 67.6337 99.0375C66.0178 97.6999 64.3558 95.6608 62.627 94.5776C62.1269 99.1229 61.898 105.662 56.9024 107.512C56.6748 106.932 56.6766 106.57 56.0625 106.323C54.5863 105.729 51.0331 107.499 49.6056 108.201L49.1648 108.359C44.8065 109.462 36.7132 111.499 33.1665 114.133C32.1011 114.011 31.0768 113.9 30.0387 113.62C25.6578 112.426 21.9304 109.538 19.6776 105.591C15.8145 98.8521 17.2921 92.8311 19.0983 85.9765C18.4786 87.0537 17.9643 88.1878 17.5628 89.3636C15.397 95.5717 15.9085 100.533 18.7172 106.345Z" fill="var(--fill-0, #3F2D1F)"/>
<path id="Vector_24" d="M90.3452 22.3493C92.3259 22.0745 96.9493 25.3714 98.4643 26.5094C103.098 29.9901 107.09 34.4759 109.738 39.6552C112.907 45.7781 112.399 52.8266 112.586 59.5044C112.683 62.9609 112.761 66.4026 112.691 69.8598C112.442 82.1869 101.545 97.2147 88.507 98.1361C87.6049 98.267 87.2069 98.2561 86.2888 98.2343C85.89 100.633 85.7017 102.48 85.4019 104.877C78.5907 106.999 72.7487 103.274 67.6325 99.0376C66.0166 97.7 64.3546 95.6609 62.6259 94.5777C62.8019 92.9039 62.8141 91.0338 62.8623 89.3364C59.4612 86.5244 56.666 83.0492 54.6467 79.1222C52.8391 80.138 51.3356 80.4596 49.2411 80.237C46.0425 79.8834 43.1236 78.2472 41.1498 75.7019C38.8608 72.793 37.8242 69.0331 38.2432 65.451C38.9459 59.4452 44.2036 55.5369 49.7494 58.9608C52.0742 60.3962 52.7923 61.7663 54.2705 63.8703C56.2571 61.8844 56.529 59.9548 57.0297 57.3179C57.1791 56.5174 57.2194 55.7086 57.2829 54.8956C59.0382 54.2378 63.1576 52.2269 64.5189 51.1058L64.457 50.8021C66.0999 49.8929 67.8808 48.3904 69.4383 47.282C75.4897 42.9748 80.2337 38.445 84.5623 32.3539C86.4336 29.6968 88.0558 26.8722 89.4084 23.9164C89.7472 23.1646 89.7734 22.6808 90.3452 22.3493Z" fill="var(--fill-0, #FCBD85)"/>
<path id="Vector_25" d="M62.8629 89.3361C68.0937 93.5906 76.1958 96.9127 82.8481 97.8178C85.1941 98.1358 86.5398 97.9686 88.5076 98.1358C87.6054 98.2667 87.2074 98.2558 86.2893 98.234C85.8906 100.633 85.7022 102.479 85.4024 104.876C78.5913 106.999 72.7492 103.274 67.6331 99.0372C66.0172 97.6997 64.3552 95.6606 62.6264 94.5774C62.8025 92.9036 62.8146 91.0335 62.8629 89.3361Z" fill="var(--fill-0, #F89A5E)"/>
<path id="Vector_26" d="M64.5193 51.1058L64.4575 50.8021C66.1004 49.8929 67.8813 48.3905 69.4387 47.2821C75.4902 42.9749 80.2341 38.4451 84.5628 32.354C86.434 29.6968 88.0563 26.8722 89.4089 23.9165C89.7477 23.1646 89.7738 22.6808 90.3457 22.3493C89.688 25.0661 87.8567 27.1815 87.3037 28.855C86.8741 32.1946 78.367 40.8091 75.8045 43.2748C76.821 43.4894 76.7887 42.6454 77.4037 42.9382C77.1048 43.2768 76.6466 43.8821 76.3332 44.1478C77.8765 44.033 80.1049 43.8365 81.3419 44.9578C82.0556 45.6048 81.7542 46.7176 81.0502 47.2708C78.1046 47.3099 75.7628 47.3446 72.9337 48.4721C71.5666 49.0169 68.6876 52.0721 67.6971 51.679L67.3308 51.2334L67.5272 50.8597C68.2078 49.5387 68.542 49.068 69.4264 47.8322C67.9885 48.8993 66.0935 50.3436 64.5193 51.1058Z" fill="var(--fill-0, #32251C)"/>
<path id="Vector_27" d="M87.3025 28.855C86.873 32.1946 78.3659 40.8092 75.8034 43.2748C76.8198 43.4894 76.7875 42.6454 77.4026 42.9382C77.1037 43.2768 76.6455 43.8822 76.332 44.1479C74.9766 44.5971 74.3147 44.6971 72.8293 45.2683C79.1706 40.0975 82.943 35.7147 87.3025 28.855Z" fill="var(--fill-0, #FBB378)"/>
<path id="Vector_28" d="M69.4248 47.8319C68.5405 49.0677 68.2062 49.5384 67.5256 50.8595L67.3293 51.2331L67.0973 51.1266C64.7468 52.8375 59.6129 56.3612 57.0286 57.3177C57.178 56.5171 57.2182 55.7084 57.2818 54.8953C59.037 54.2376 63.1565 52.2267 64.5178 51.1055C66.0919 50.3433 67.9869 48.8991 69.4248 47.8319Z" fill="var(--fill-0, #F89A5E)"/>
<path id="Vector_29" d="M75.9283 55.7605C81.2373 55.1024 82.0661 60.904 81.228 64.8708C80.8404 66.7062 79.8111 67.8635 78.2392 68.7969C71.7023 69.4239 70.6232 58.7592 75.9283 55.7605Z" fill="var(--fill-0, #32251C)"/>
<path id="Vector_30" d="M77.0131 58.2059C79.1852 58.4267 79.3417 60.5144 77.8869 61.9176C75.4707 61.9328 75.6848 59.5919 77.0131 58.2059Z" fill="var(--fill-0, #FEFEFE)"/>
<path id="Vector_31" d="M82.2085 82.3085C81.3688 81.1938 79.7017 79.3413 80.7955 78.0024C81.5855 77.6717 82.5138 78.2552 83.2947 78.5102C86.477 79.5488 89.9207 79.5474 93.2019 79.0531C94.2723 78.8919 97.1836 77.8078 97.8442 78.0764C98.7041 79.6517 95.1868 83.1827 93.8649 83.9694C92.801 84.6864 91.5722 85.1196 90.2944 85.2283C86.9158 85.5487 84.687 84.3056 82.2085 82.3085Z" fill="var(--fill-0, #C74D21)"/>
<path id="Vector_32" d="M82.2089 82.3086C84.6248 80.7513 88.7141 81.0675 91.3635 82.0642C92.4667 82.4793 93.0932 83.0997 93.8652 83.9695C92.8014 84.6865 91.5726 85.1197 90.2948 85.2284C86.9161 85.5488 84.6874 84.3057 82.2089 82.3086Z" fill="var(--fill-0, #EA7C44)"/>
<path id="Vector_33" d="M102.781 53.4071C108.609 53.2461 109.268 63.3332 104.211 65.8964C98.2474 66.0807 97.7632 55.5191 102.781 53.4071Z" fill="var(--fill-0, #32251C)"/>
<path id="Vector_34" d="M103.499 55.859C105.691 56.3135 105.587 58.0936 104.19 59.4234C101.905 59.0677 102.227 57.1653 103.499 55.859Z" fill="var(--fill-0, #FEFEFE)"/>
<path id="Vector_35" d="M101.49 42.5047C102.352 42.4539 102.988 42.4353 103.859 42.562C105.789 42.8426 110.084 45.207 109.51 47.5977L109.112 47.838C108.433 47.8275 107.917 47.364 107.336 46.9673C104.191 45.2301 102.705 45.7119 99.4178 45.8941C98.8538 45.9256 98.6011 45.7557 98.2863 45.4047C97.9821 43.4987 100.077 42.9433 101.49 42.5047Z" fill="var(--fill-0, #32251C)"/>
<path id="Vector_36" d="M41.7393 65.9819C44.9272 60.6505 48.5263 64.5386 50.7045 68.302C47.5852 71.8775 52.0705 73.2561 51.5489 74.4107C51.318 74.3893 51.0304 74.3738 50.8092 74.3306C50.5001 74.3108 50.1916 74.2802 49.8847 74.2393C46.4535 73.7725 45.1241 69.6127 48.6105 67.4936C46.2233 64.5409 45.0174 63.8007 41.7393 65.9819Z" fill="var(--fill-0, #EA7C44)"/>
<path id="Vector_37" d="M48.6106 67.4933C49.9926 69.7012 46.86 71.4455 50.8092 74.3302C50.5002 74.3104 50.1917 74.2799 49.8848 74.239C46.4535 73.7721 45.1242 69.6123 48.6106 67.4933Z" fill="var(--fill-0, #F89A5E)"/>
<path id="Vector_38" d="M93.2266 62.2335C93.7563 62.7135 93.9431 64.5894 94.3975 65.1462C97.1444 68.5118 99.6813 70.114 94.7165 73.4903L94.155 73.521C93.8447 72.9811 95.6198 71.6368 95.9464 70.8582C96.2375 70.1643 96.2998 69.8347 96.464 69.115C94.1338 66.8196 92.8914 65.7296 93.2266 62.2335Z" fill="var(--fill-0, #F89A5E)"/>
<path id="Vector_39" d="M326.395 16.3114C332.052 16.8882 327.226 22.2967 325.515 24.3727C324.007 26.2032 321.091 30.7935 319.154 31.6333C318.122 31.4261 316.849 31.0632 316.526 29.8961C316.372 29.3589 316.439 28.7828 316.71 28.2946C318.209 25.5457 323.163 19.6732 325.223 16.8919C325.412 16.6374 326.07 16.4117 326.395 16.3114Z" fill="var(--fill-0, #499D52)"/>
<path id="Vector_40" d="M337.433 35.7716C340.313 35.4821 340.778 39.3269 338.785 40.1433C334.76 41.7927 330.002 43.2343 325.878 44.5933C324.858 44.538 323.695 44.1551 323.39 43.0936C322.65 40.5107 325.054 39.8118 326.857 39.262C330.412 38.1774 333.885 36.7304 337.433 35.7716Z" fill="var(--fill-0, #499D52)"/>
<path id="Vector_41" d="M325.039 67.5526C327.869 67.8001 333.101 69.9245 335.986 70.8075C338.621 71.6139 338.908 74.0332 336.358 75.7083C334.184 75.764 327.642 73.1203 325.235 72.3158C322.958 71.5537 322.35 69.0399 325.039 67.5526Z" fill="var(--fill-0, #499D52)"/>
<path id="Vector_42" d="M318.571 105.167C320.794 105.127 323.155 107.435 324.933 108.809C327.233 110.585 332.448 113.64 328.316 116.413C326.387 116.517 324.037 114.249 322.465 113.045C320.474 111.524 313.836 107.452 318.571 105.167Z" fill="var(--fill-0, #499D52)"/>
</g>
</svg>
