<svg preserveAspectRatio="none" width="100%" height="100%" overflow="visible" style="display: block;" viewBox="0 0 296 169" fill="none" xmlns="http://www.w3.org/2000/svg">
<g id="Frame 2147228225">
<path id="Vector" d="M132.635 40.6304L132.628 32.2987C132.625 29.5583 132.356 26.6956 133.835 24.2536C135.513 21.5726 138.04 20.6756 141.048 20.7186C143.917 20.7595 146.828 20.7138 149.665 20.7146L175.86 20.718L237.258 20.7183L257.896 20.7131C261.519 20.7127 265.163 20.6937 268.783 20.7367C270.288 20.7424 271.665 21.1776 272.895 22.0428C275.086 23.5833 275.88 25.5746 276.346 28.0749C276.542 29.3831 276.477 32.0278 276.471 33.4272L276.403 42.0942L276.367 67.0624L276.322 116.432L276.345 133.067C276.341 136.787 276.981 142.002 274.852 145.1C273.926 146.449 272.039 147.991 270.351 148.159C266.133 148.416 261.714 148.25 257.485 148.264L226.26 148.251L166.127 148.279L149.155 148.287C146.334 148.293 138.738 148.94 136.831 147.052L137.055 146.16L142.208 125.57C142.866 122.952 144.654 116.426 144.871 114.079C144.204 112.336 143.773 111.881 141.974 111.419C140.738 111.55 138.202 111.482 136.883 111.482L127.443 111.477C121.133 111.474 112.714 111.765 106.647 111.403C108.705 111.199 113.321 111.329 115.578 111.329H132.643L132.635 40.6304Z" fill="var(--fill-0, white)"/>
<path id="Vector_2" d="M132.635 40.6304L132.628 32.2987C132.626 29.5583 132.356 26.6956 133.835 24.2536C135.513 21.5726 138.041 20.6756 141.048 20.7186C143.917 20.7595 146.828 20.7138 149.665 20.7146L175.86 20.718L237.258 20.7183L257.896 20.7131C261.519 20.7127 265.163 20.6937 268.783 20.7367C270.288 20.7424 271.665 21.1776 272.895 22.0428C275.086 23.5833 275.88 25.5746 276.347 28.0749C276.208 31.1813 276.551 37.8696 276.229 40.5268C275.641 40.7178 275.036 40.6286 274.412 40.5929C269.248 40.7251 263.653 40.6162 258.452 40.6179L227.335 40.6158L134.135 40.6016L132.635 40.6304Z" fill="var(--fill-0, #755AC8)"/>
<path id="Vector_3" d="M164.423 28.0879C166.059 27.5813 167.794 28.5092 168.285 30.1533C168.775 31.7973 167.831 33.5259 166.185 34.0007C164.562 34.4689 162.864 33.5396 162.38 31.918C161.898 30.2965 162.808 28.5878 164.423 28.0879Z" fill="var(--fill-0, white)"/>
<path id="Vector_4" d="M143.533 27.9687C145.192 27.7783 146.698 28.9543 146.917 30.6123C147.136 32.2702 145.989 33.7984 144.338 34.0471C143.242 34.2119 142.145 33.7725 141.466 32.8977C140.786 32.0231 140.631 30.8492 141.059 29.8273C141.488 28.8055 142.434 28.0949 143.533 27.9687Z" fill="var(--fill-0, white)"/>
<path id="Vector_5" d="M153.767 28.116C154.821 27.7801 155.972 28.0417 156.777 28.7996C157.582 29.5576 157.913 30.6929 157.644 31.7656C157.373 32.8384 156.543 33.6801 155.475 33.9645C153.879 34.3898 152.234 33.4622 151.771 31.8744C151.308 30.2868 152.194 28.6186 153.767 28.116Z" fill="var(--fill-0, white)"/>
<path id="Vector_6" d="M276.346 28.0749C276.542 29.3831 276.477 32.0278 276.471 33.4272L276.403 42.0943L276.367 67.0624L276.322 116.432L276.345 133.067C276.342 136.787 276.981 142.002 274.852 145.1C273.926 146.449 272.039 147.991 270.351 148.159C266.133 148.416 261.715 148.25 257.485 148.264L226.26 148.251L166.127 148.279L149.155 148.287C146.334 148.293 138.738 148.94 136.831 147.052L137.055 146.16C138.473 148.111 150.335 147.417 153.232 147.411L179.329 147.414L239.524 147.409L258.332 147.406C261.908 147.413 265.475 147.426 269.049 147.384C271.637 147.523 274.524 145.139 275.055 142.597C275.619 139.888 275.435 136.029 275.439 133.214L275.444 118.545L275.443 60.1482C275.443 57.8406 275.593 41.3709 275.299 40.8122L274.412 40.5929C275.036 40.6286 275.641 40.7178 276.229 40.5268C276.551 37.8696 276.208 31.1813 276.346 28.0749Z" fill="var(--fill-0, #D6D7E8)"/>
<path id="Vector_7" d="M132.635 40.6304L134.135 40.6016L133.664 40.798C133.327 41.9525 133.607 53.715 133.605 56.0693L133.543 90.8707C133.532 97.7019 133.661 104.498 133.448 111.332C134.817 111.322 140.825 111.203 141.974 111.419C140.738 111.55 138.202 111.482 136.883 111.482L127.443 111.477C121.133 111.474 112.714 111.765 106.647 111.403C108.705 111.199 113.321 111.329 115.578 111.329H132.643L132.635 40.6304Z" fill="var(--fill-0, #D6D7E8)"/>
<path id="Vector_8" d="M228.234 96.0518C238.623 95.5912 249.629 96.3395 260.062 96.0405C262.772 95.9613 264.792 97.8424 264.799 100.629C264.823 110.107 264.857 119.629 264.768 129.11C264.747 131.373 263.322 132.633 261.353 133.372C259.957 133.55 257.679 133.492 256.212 133.492L247.533 133.49L235.607 133.472C231.725 133.477 224.978 134.747 224.663 129.125C224.59 127.829 224.627 126.41 224.634 125.101C224.671 116.844 224.587 108.58 224.682 100.325C224.69 99.7543 224.8 99.2904 225.029 98.7733C225.726 97.2073 226.677 96.5916 228.234 96.0518Z" fill="var(--fill-0, #BEBAFB)"/>
<path id="Vector_9" d="M237.54 113.963C238.047 113.947 238.578 113.918 238.972 114.276C241.622 116.684 243.636 120.636 246.343 122.947C248.495 121.02 249.897 117.78 252.129 115.849C253.815 114.391 255.816 117.588 256.71 118.785C258.924 121.752 261.171 124.715 263.296 127.75C264.692 129.742 262.997 131.376 261.306 132.365L259.691 132.41C249.424 132.372 238.268 132.642 228.069 132.362C226.317 131.417 224.902 129.605 226.28 127.735C228.207 125.125 230.34 122.441 232.438 119.971C233.779 118.393 236.024 115.181 237.54 113.963Z" fill="var(--fill-0, white)"/>
<path id="Vector_10" d="M247.302 103.769C248.535 103.458 249.841 103.838 250.714 104.763C251.588 105.689 251.897 107.012 251.519 108.229C251.143 109.444 250.141 110.362 248.897 110.631C247.87 110.85 246.799 110.6 245.976 109.947C245.153 109.294 244.664 108.308 244.643 107.256C244.609 105.616 245.713 104.168 247.302 103.769Z" fill="var(--fill-0, #755AC8)"/>
<path id="Vector_11" d="M148.661 52.2366C149.781 52.1866 150.95 52.2162 152.074 52.2181C161.4 52.234 170.749 52.1863 180.071 52.2191C182.963 52.2865 184.38 54.2101 184.487 56.9736C184.532 58.148 184.537 59.2817 184.521 60.448C184.412 68.0061 184.624 75.5654 184.554 83.1215C184.532 85.6846 183.617 87.0179 181.258 87.9439C178.519 88.1912 171.807 87.994 168.769 87.994H156.8C154.169 87.9924 150.325 88.3883 147.85 87.6401C146.88 87.3476 146.149 86.4587 145.726 85.5715C145.492 85.077 145.311 84.5178 145.268 83.97C145.055 81.2307 145.037 56.3708 145.55 55.1486C146.196 53.6094 147.146 52.8604 148.661 52.2366Z" fill="var(--fill-0, #BEBAFB)"/>
<path id="Vector_12" d="M193.955 56.9568C197.313 56.839 201.247 56.9379 204.667 56.9363L225.399 56.9303L248.63 56.9239C252.968 56.9184 258.222 56.6625 262.441 57.1861C263.774 57.3515 265.252 60.9282 261.879 62.0859C258.522 62.2328 254.378 62.1231 250.975 62.1158L231.482 62.0958L205.746 62.1165C201.723 62.11 197.398 62.2029 193.399 62.0695C190.919 60.5849 191.05 57.7138 193.955 56.9568Z" fill="var(--fill-0, #D6D7E8)"/>
<path id="Vector_13" d="M193.763 69.0891C198.149 68.8735 204.084 69.0469 208.561 69.0458L237.528 69.0374L253.454 69.014C256.079 69.0107 259.68 68.8121 262.186 69.2619C264.734 69.7189 264.497 73.034 262.026 74.2218L211.243 74.1736C206.532 74.1757 198.142 74.3824 193.285 74.0001C191.757 73.8797 190.327 70.1704 193.763 69.0891Z" fill="var(--fill-0, #D6D7E8)"/>
<path id="Vector_14" d="M147.509 97.9992C150.741 97.8602 154.706 97.9668 157.979 97.9652L178.051 97.9717L201.32 97.9685C205.47 97.962 209.621 97.9426 213.771 97.9604C215.045 97.9652 216.334 98.2335 216.849 99.5652C217.499 101.246 216.637 102.545 215.019 103.127C200.019 103.339 184.99 103.125 169.987 103.122C167.3 103.122 148.279 103.47 146.781 102.914C146.186 102.692 145.755 102.232 145.54 101.64C145.293 100.961 145.266 100.084 145.585 99.4229C145.968 98.6278 146.705 98.2464 147.509 97.9992Z" fill="var(--fill-0, #D6D7E8)"/>
<path id="Vector_15" d="M147.521 110.277C152.541 110.13 158.131 110.243 163.188 110.241L192.639 110.243C195.559 110.243 213.68 109.868 215.439 110.438C216.011 110.622 216.481 111.243 216.731 111.765C216.954 112.232 217.135 112.924 216.925 113.42C216.491 114.435 216.011 114.921 215.043 115.379C211.23 115.497 206.811 115.398 202.947 115.398L180.569 115.408L158.591 115.385C155.273 115.38 152.049 115.383 148.626 115.398C146.381 115.408 144.893 114.255 145.578 111.686C145.768 110.975 146.846 110.504 147.521 110.277Z" fill="var(--fill-0, #D6D7E8)"/>
<path id="Vector_16" d="M193.751 80.8946C197.386 80.7233 229.922 80.6651 230.866 81.0384C231.573 81.3196 232.134 81.9402 232.399 82.6496C232.643 83.3041 232.573 83.8843 232.257 84.4984C231.834 85.3162 231.24 85.696 230.393 85.9901L205.42 85.9885C201.564 85.9949 197.202 86.1388 193.333 85.8285C192.664 85.662 191.907 84.8653 191.707 84.2576C191.135 82.5349 192.284 81.3875 193.751 80.8946Z" fill="var(--fill-0, #D6D7E8)"/>
<path id="Vector_17" d="M147.44 122.41C156.979 122.122 166.7 122.548 176.255 122.355C176.852 122.342 179.679 122.318 180.125 122.507C182.52 123.53 182.52 126.457 179.942 127.564C177.128 127.8 148.289 127.79 146.988 127.396C146.392 127.215 145.976 126.809 145.7 126.255C145.36 125.568 145.231 124.616 145.566 123.9C145.939 123.107 146.665 122.722 147.44 122.41Z" fill="var(--fill-0, #D6D7E8)"/>
<path id="Vector_18" d="M46.2504 72.7757C46.9209 73.1313 48.6996 75.4017 49.4466 76.1281C54.1538 80.7055 61.6944 84.8379 68.2751 85.6039C69.1179 85.7106 70.0363 85.8495 70.8779 85.9045C73.6428 85.9061 75.1126 85.7881 77.7987 85.0415C80.8963 87.9763 82.3543 91.1374 81.4022 95.4862C89.2268 98.8089 92.5627 102.272 95.87 110.286C96.8489 112.659 97.999 116.665 98.9217 118.708C100.374 113.253 100.357 111.403 106.647 111.403C112.714 111.765 121.133 111.474 127.443 111.477L136.883 111.482C138.202 111.482 140.738 111.55 141.974 111.419C143.773 111.881 144.204 112.336 144.871 114.079C144.655 116.426 142.866 122.952 142.208 125.57L137.055 146.16L136.831 147.052L134.051 158.412C133.481 160.791 132.999 163.418 132.087 165.681C131.639 166.789 130.505 167.536 129.465 168.052C131.342 168.671 142.507 167.45 145.34 167.945C146.075 168.073 146.641 167.754 147.527 168.17L147.65 168.485C147.167 169.267 144.214 168.897 143.223 168.894L135.997 168.915L97.5429 168.923L78.6393 168.949C77.3089 168.95 71.607 169.054 70.5616 168.892C69.0818 168.692 62.1556 168.999 61.3503 168.499L62.8708 168.16C62.0179 168.168 61.3163 168.126 60.4724 168.071C58.4869 168.228 55.4278 168.131 53.3614 168.124L50.2277 168.116L50.405 168.36C48.6496 168.965 46.6824 168.488 44.9328 168.68C41.5604 169.05 37.3134 168.512 34.0451 168.881C32.7998 168.971 31.2562 168.955 29.987 168.921C22.8904 168.729 15.5071 169.207 8.43887 168.885C7.1774 168.811 5.63595 168.252 4.81455 168.257L4.75903 168.039C-0.275878 165.707 -0.196644 160.663 0.125945 155.889C0.601519 148.851 1.98515 141.724 3.19724 134.793C4.07496 129.608 5.08566 124.448 6.22852 119.315C7.84937 112.176 9.02112 107.631 14.3102 102.229C11.9152 95.963 15.2589 91.0776 19.857 87.0438C20.0493 82.8776 20.8006 79.338 24.702 77.1262C30.184 74.0184 40.213 74.622 46.1755 76.0937C46.2822 75.6323 46.2861 73.9634 46.2993 73.3931L46.2504 72.7757Z" fill="var(--fill-0, #755AC8)"/>
<path id="Vector_19" d="M106.647 111.403C112.714 111.765 121.133 111.474 127.443 111.477L136.883 111.482C138.202 111.482 140.738 111.55 141.974 111.419C143.773 111.881 144.204 112.335 144.871 114.079C144.654 116.426 142.866 122.952 142.208 125.57L137.055 146.16L136.831 147.052L134.051 158.412C133.481 160.79 132.999 163.418 132.087 165.681C131.639 166.789 130.505 167.536 129.465 168.052C131.342 168.67 142.507 167.45 145.34 167.945C146.075 168.073 146.641 167.754 147.527 168.17L147.65 168.485C147.167 169.267 144.214 168.897 143.223 168.894L135.997 168.915L97.5429 168.923L78.6392 168.948C77.3088 168.95 71.607 169.054 70.5616 168.892C69.0818 168.692 62.1555 168.999 61.3503 168.499L62.8708 168.16C62.0179 168.168 61.3162 168.126 60.4724 168.071C60.0262 167.471 59.6223 166.547 59.6523 165.805C59.799 162.179 66.575 162.953 68.7288 162.974C71.9889 163.093 79.2289 163.184 82.4059 162.982L82.8876 163.022L83.698 162.953L85.5603 162.971L87.4126 162.935C88.4952 158.176 89.9374 153.337 90.9517 148.604C93.2069 141.538 94.7814 133.362 96.9119 126.182C97.6208 123.792 98.1025 121.085 98.9217 118.708C100.374 113.253 100.356 111.403 106.647 111.403Z" fill="var(--fill-0, #504F53)"/>
<path id="Vector_20" d="M62.8707 168.16C68.0618 167.966 74.4369 168.129 79.7023 168.124L113.699 168.115C118.617 168.115 124.615 168.271 129.465 168.052C131.342 168.67 142.507 167.45 145.34 167.945C146.075 168.073 146.641 167.754 147.527 168.17L147.65 168.485C147.167 169.267 144.214 168.897 143.223 168.894L135.997 168.915L97.5428 168.923L78.6391 168.948C77.3088 168.95 71.6069 169.054 70.5615 168.892C69.0817 168.692 62.1555 168.999 61.3502 168.499L62.8707 168.16Z" fill="url(#paint0_linear_0_53)"/>
<path id="Vector_21" d="M118.846 135.164C124.47 134.573 123.773 143.791 118.039 145.945C112.227 146.147 113.39 137.327 118.846 135.164Z" fill="var(--fill-0, #343337)"/>
<path id="Vector_22" d="M46.2502 72.7757C46.9208 73.1313 48.6994 75.4017 49.4464 76.1281C54.1536 80.7055 61.6942 84.8379 68.2749 85.6039C68.1715 87.708 67.9754 89.8057 67.6875 91.8937L67.4653 94.3162C68.7006 95.5897 69.0126 96.0907 68.5283 97.912C68.4674 97.9702 67.5095 99.1822 67.3183 99.4036L63.652 103.625C59.5511 99.5733 49.248 92.6856 44.2229 89.2724C45.3767 86.0515 46.3004 79.6391 46.1754 76.0937C46.282 75.6323 46.2859 73.9634 46.2991 73.3931L46.2502 72.7757Z" fill="var(--fill-0, #FBBB92)"/>
<path id="Vector_23" d="M46.2505 72.7757C46.921 73.1313 48.6997 75.4017 49.4467 76.1281C54.1539 80.7055 61.6945 84.8379 68.2752 85.6039C68.1717 87.708 67.9757 89.8057 67.6878 91.8937C59.6264 91.425 50.3191 79.9174 46.2994 73.3931L46.2505 72.7757Z" fill="var(--fill-0, #F38C61)"/>
<path id="Vector_24" d="M56.6156 154.916C67.5088 151.553 75.7063 148.924 84.0622 159.12L84.6559 159.887C85.4305 161.154 85.5089 161.482 85.5604 162.971L83.6981 162.953L82.8877 163.022L82.406 162.982C79.229 163.184 71.9891 163.093 68.7289 162.974C66.5751 162.953 59.7991 162.179 59.6524 165.805C59.6224 166.547 60.0263 167.471 60.4725 168.071C58.4869 168.228 55.4279 168.131 53.3615 168.124C52.1539 165.086 52.4028 157.56 54.8307 155.28L56.6156 154.916Z" fill="var(--fill-0, #FBBB92)"/>
<path id="Vector_25" d="M77.4827 162.945C76.0676 161.791 75.2007 160.837 73.5842 159.892C72.3131 159.149 69.4102 158.791 68.8658 157.807C69.9765 156.739 76.4943 160.063 77.2692 161.505C77.495 161.925 78.043 162.473 78.3543 162.961C79.6263 162.964 81.1558 162.927 82.4058 162.982C79.2288 163.184 71.9889 163.093 68.7288 162.974C71.6487 162.888 74.5662 162.971 77.4827 162.945Z" fill="var(--fill-0, #F38C61)"/>
<path id="Vector_26" d="M78.6001 158.171C76.9976 157.03 75.9713 156.466 74.1253 155.753C73.5729 155.54 71.6527 154.914 71.3709 154.603L71.4439 154.373C74.0354 154.001 79.3348 157.219 81.0039 159.341C79.9095 158.989 79.939 158.135 78.6001 158.171Z" fill="var(--fill-0, #F38C61)"/>
<path id="Vector_27" d="M78.5999 158.171C79.9388 158.135 79.9093 158.989 81.0037 159.341C81.9313 160.126 83.2481 161.823 83.6979 162.953L82.8875 163.022C81.4749 160.999 80.4349 159.784 78.5999 158.171Z" fill="var(--fill-0, #D85730)"/>
<path id="Vector_28" d="M48.5527 153.731C49.8384 153.686 54.0958 153.791 55.1126 154.268C55.0272 154.669 54.954 154.895 54.8307 155.28C52.4028 157.56 52.1539 165.086 53.3615 168.124L50.2278 168.116L46.2636 168.111C45.9077 166.938 45.6796 165.729 45.5827 164.506C45.2772 160.866 46.1638 156.585 48.5527 153.731Z" fill="var(--fill-0, #755AC8)"/>
<path id="Vector_29" d="M84.6558 159.887C85.0875 154.703 86.232 148.521 86.7855 143.149C87.2641 138.505 87.6792 131.898 88.391 127.457C89.0354 131.139 89.7104 146.819 90.9517 148.604C89.9375 153.337 88.4953 158.176 87.4126 162.935L85.5603 162.971C85.5089 161.482 85.4304 161.154 84.6558 159.887Z" fill="var(--fill-0, #644CB5)"/>
<path id="Vector_30" d="M33.8309 126.439C35.3055 129.878 33.6543 140.738 34.7591 145.252C35.0147 146.323 35.5139 147.322 36.2178 148.169C37.6489 149.871 39.3296 150.309 40.8649 151.485C37.1184 151.453 32.5328 150.362 28.4542 150.302C30.096 144.25 31.2184 138.081 32.6457 131.981C33.076 130.141 33.4571 128.289 33.8309 126.439Z" fill="var(--fill-0, #644CB5)"/>
<path id="Vector_31" d="M27.6089 150.359C28.9517 142.299 31.535 134.204 32.7905 126.106C32.9094 125.338 32.8602 122.662 33.5283 122.375C34.2948 123.291 34.0096 125.308 33.8308 126.439C33.4571 128.289 33.0759 130.141 32.6457 131.981C31.2183 138.081 30.096 144.25 28.4541 150.302C32.5327 150.362 37.1184 151.453 40.8649 151.485C42.6282 151.705 47.6179 152.028 48.8147 152.773C48.5178 153.116 48.4832 153.208 48.098 153.429C42.8041 153.019 37.098 152.052 31.7699 151.587C29.236 151.366 25.6385 150.755 23.1439 150.953C20.8769 151.133 17.2975 151.876 15.2532 152.843C14.8086 153.053 14.9172 153.064 14.3428 153.177L14.1756 152.982C14.4932 152.448 15.8046 151.866 16.4209 151.64C20.0833 150.299 23.7318 149.759 27.6089 150.359Z" fill="var(--fill-0, #4F3AA1)"/>
<path id="Vector_32" d="M68.2749 85.6038C69.1178 85.7105 70.0362 85.8495 70.8778 85.9044C71.4285 86.1177 72.4007 86.045 73.0295 86.0385C74.1456 87.3961 74.7751 88.9766 74.0888 90.751C73.5148 92.2346 69.7886 97.5241 68.5283 97.9119C69.0126 96.0906 68.7006 95.5896 67.4653 94.3161L67.6875 91.8936C67.9754 89.8056 68.1715 87.708 68.2749 85.6038Z" fill="var(--fill-0, #4F3AA1)"/>
<path id="Vector_33" d="M84.0621 159.12C84.9634 146.202 87.5523 133.238 87.5906 120.224C87.5922 119.679 87.507 118.498 87.822 118.089L88.105 118.121C88.9773 119.278 88.5028 125.738 88.391 127.457C87.6792 131.898 87.2641 138.505 86.7855 143.149C86.232 148.521 85.0875 154.703 84.6558 159.887L84.0621 159.12Z" fill="var(--fill-0, #4F3AA1)"/>
<path id="Vector_34" d="M4.75906 168.039C7.74499 168.25 12.4705 168.107 15.5831 168.108L35.259 168.111C38.4625 168.111 42.1112 168.022 45.2659 168.131L46.2635 168.111L50.2277 168.116L50.405 168.36C48.6496 168.965 46.6824 168.488 44.9328 168.68C41.5604 169.05 37.3135 168.512 34.0451 168.881C32.7998 168.971 31.2562 168.955 29.987 168.921C22.8904 168.729 15.5071 169.207 8.4389 168.885C7.17743 168.811 5.63597 168.252 4.81457 168.257L4.75906 168.039Z" fill="var(--fill-0, #E1E0E4)"/>
<path id="Vector_35" d="M48.8147 152.773C50.792 153.586 54.783 151.37 56.6155 154.916L54.8306 155.28C54.9539 154.895 55.0271 154.669 55.1125 154.268C54.0957 153.791 49.8383 153.686 48.5526 153.731C46.1637 156.585 45.2771 160.866 45.5826 164.506C45.6795 165.729 45.9076 166.938 46.2635 168.111L45.2659 168.131C44.2636 163.963 44.2929 156.207 48.098 153.429C48.4832 153.208 48.5177 153.116 48.8147 152.773Z" fill="var(--fill-0, #644CB5)"/>
<path id="Vector_36" d="M24.1354 96.0663C34.054 95.3052 45.5047 104.047 55.4972 105.666C57.5746 106.004 56.1152 105.268 57.3661 104.378C57.7184 104.536 57.7181 104.543 57.8411 104.91C58.5288 106.957 59.8181 127.633 58.8792 129.217C58.7464 129.442 58.7435 129.379 58.464 129.456C58.4241 129.427 58.3797 129.406 58.3446 129.372C57.5004 128.563 57.7634 120.498 57.67 118.866C57.619 115.708 57.4 110.18 56.9209 107.099C48.5399 105.776 40.6825 100.966 32.6475 98.3305C24.9883 95.8191 20.713 96.9455 14.5547 102.022C16.2624 98.4387 20.4339 96.7144 24.1354 96.0663Z" fill="var(--fill-0, #4F3AA1)"/>
<path id="Vector_37" d="M69.4495 104.811C69.3807 104.207 69.2979 103.932 69.4938 103.353C69.9028 102.93 69.6778 102.994 70.1376 102.985C71.299 104.292 72.3249 127.032 71.3708 128.091L70.9491 128.108C70.7377 127.546 70.6222 126.468 70.6094 125.851C70.4976 120.448 70.4053 115.057 69.9894 109.666C69.9065 108.591 69.703 106.972 69.7424 105.944C69.6838 105.444 69.6961 105.257 69.4495 104.811Z" fill="var(--fill-0, #4F3AA1)"/>
<path id="Vector_38" d="M81.0676 95.8255C81.406 97.175 79.2422 99.5377 78.3351 100.477C76.3737 102.506 74.2034 104.221 71.5796 105.286C71.4156 104.19 71.7936 104.108 72.8194 103.549C76.4975 101.542 78.5328 99.069 81.0676 95.8255Z" fill="var(--fill-0, #4F3AA1)"/>
<path id="Vector_39" d="M69.4495 104.811C69.6961 105.257 69.6838 105.444 69.7424 105.944C69.0136 106.275 67.8106 106.946 67.0918 106.718L67.0921 106.469C67.7312 105.645 69.0459 105.889 69.4495 104.811Z" fill="var(--fill-0, #644CB5)"/>
<path id="Vector_40" d="M37.9278 13.8785C39.2756 10.083 42.5749 6.86294 45.962 4.86821C53.008 0.736048 61.633 0.655244 69.492 1.69956C75.2603 2.46607 80.5207 3.06984 86.1606 1.28697C89.5182 0.225693 93.4967 -0.831871 96.7635 0.982667C98.1563 1.75645 99.3148 2.99017 100.084 4.39907C103.858 11.5952 101.098 21.4536 93.976 25.4292C96.0119 30.1717 94.9299 38.3321 92.0494 42.5137C92.031 42.5748 92.0126 42.6359 91.9942 42.697C91.5922 49.775 92.258 56.9825 91.8739 64.045C91.3809 73.1063 86.1501 81.2841 77.7986 85.0415C75.1125 85.7881 73.6427 85.9061 70.8779 85.9044C70.0363 85.8495 69.1179 85.7105 68.2751 85.6039C61.6943 84.8378 54.1537 80.7055 49.4466 76.1281C48.6996 75.4017 46.9209 73.1312 46.2504 72.7757C46.0479 72.208 46.0714 72.2445 45.6149 71.8511C42.2413 70.6037 40.1636 68.2924 38.0819 65.5203C33.622 63.2528 31.1064 59.9337 30.83 54.7864C30.7895 54.0335 31.0939 53.0965 31.0985 52.3046L31.0977 52.0685C26.2755 41.6344 22.9912 28.2819 32.3631 19.3386C31.3606 19.6177 29.1825 20.749 28.6271 19.791C28.7591 16.6296 32.8204 15.6447 35.3832 15.537C34.5574 14.1604 33.2844 12.2269 34.1603 10.6334C35.9027 9.51267 37.3294 12.6842 37.9278 13.8785Z" fill="var(--fill-0, #FBBB92)"/>
<path id="Vector_41" d="M37.9278 13.8785C39.2756 10.083 42.5749 6.86294 45.962 4.86821C53.008 0.736048 61.633 0.655244 69.492 1.69956C75.2603 2.46607 80.5207 3.06984 86.1606 1.28697C89.5182 0.225693 93.4967 -0.831871 96.7635 0.982667C98.1563 1.75645 99.3148 2.99017 100.084 4.39907C103.858 11.5952 101.098 21.4536 93.976 25.4292C96.0119 30.1717 94.9299 38.3321 92.0494 42.5137C91.7463 41.7458 91.7284 37.6552 91.5749 36.4988C91.1203 33.0729 90.4801 30.7979 89.3489 27.6096C81.0871 29.9737 73.2966 28.7518 64.9094 28.4309C61.0533 28.2832 56.6678 27.3685 53.0089 26.1499C55.1239 33.7392 53.9883 39.087 49.1082 45.2068C48.9445 47.4762 48.9587 50.5888 48.5802 52.7797C47.7447 54.6557 45.7569 55.6211 44.4633 53.6114C43.3017 51.8065 42.9643 49.5679 41.2721 48.3134C37.2606 45.3393 33.168 47.0767 31.408 51.3225C31.3025 51.5703 31.1991 51.8188 31.0977 52.0685C26.2755 41.6344 22.9912 28.2819 32.3631 19.3386C31.3606 19.6177 29.1825 20.749 28.6271 19.791C28.7591 16.6296 32.8204 15.6447 35.3832 15.537C34.5574 14.1604 33.2844 12.2269 34.1603 10.6334C35.9027 9.51267 37.3294 12.6842 37.9278 13.8785Z" fill="var(--fill-0, #343337)"/>
<path id="Vector_42" d="M38.0819 65.5203C39.8022 65.7942 40.9704 65.9641 42.7074 65.5402C43.4123 67.8659 44.1861 69.3658 45.4695 71.4717C45.5957 71.6787 45.5529 71.5927 45.6149 71.8511C42.2413 70.6037 40.1636 68.2924 38.0819 65.5203Z" fill="var(--fill-0, #343337)"/>
<path id="Vector_43" d="M66.8226 48.2019C71.1828 47.4968 71.7247 54.9612 68.2401 57.3081C64.1305 58.1247 63.4185 50.7801 66.8226 48.2019Z" fill="var(--fill-0, #343337)"/>
<path id="Vector_44" d="M67.3247 38.6967C68.9573 38.5804 71.9124 38.4301 72.4737 40.2889C73.2752 42.9432 70.5482 42.4705 69.0934 42.3224C67.4175 42.1518 65.9617 42.495 64.4203 42.9567C63.1599 43.4474 61.3691 44.9831 60.2124 44.3034C59.8835 43.5807 60.362 42.6898 60.7979 42.1047C62.3947 39.9623 64.7848 39.093 67.3247 38.6967Z" fill="var(--fill-0, #343337)"/>
<path id="Vector_45" d="M85.374 48.1928C89.5379 47.6133 89.4461 54.9408 86.5689 57.0081C82.7421 57.6123 82.5181 50.4645 85.374 48.1928Z" fill="var(--fill-0, #343337)"/>
<path id="Vector_46" d="M68.4695 68.6082C69.2998 68.663 72.3604 71.4827 74.7175 71.6106C77.5085 71.7618 78.611 71.1603 81.3061 70.7253C81.5379 70.6878 81.5934 70.8987 81.7076 71.0737C81.6568 71.6312 81.3692 71.8366 80.9834 72.2575C77.6108 74.7477 70.4494 73.8674 68.0585 69.7962C67.8331 69.4124 68.2421 68.9531 68.4695 68.6082Z" fill="var(--fill-0, #D85730)"/>
<path id="Vector_47" d="M85.3299 38.8543C85.6874 38.8412 86.0452 38.8399 86.4028 38.8503C87.8192 38.9038 89.5823 39.5764 90.4827 40.6929C91.2308 41.621 91.859 42.9967 90.6821 43.8176C90.0395 43.786 90.1685 43.7368 89.5407 43.3331C86.5659 41.5659 86.2081 42.8273 83.2942 42.1397C83.0704 41.9764 82.8436 41.8218 82.8051 41.5483C82.5154 39.4951 83.9641 39.1082 85.3299 38.8543Z" fill="var(--fill-0, #343337)"/>
<path id="Vector_48" d="M80.0044 49.6921L80.4206 49.9733C80.9807 51.0879 81.1513 53.8068 81.5939 55.2941C82.6267 58.7643 87.0633 62.9841 82.483 65.8458C80.9257 66.8189 79.0455 66.4079 77.3538 65.9879C76.8795 65.7367 76.4966 65.4538 76.419 64.8899C77.87 64.0622 81.751 67.2497 83.686 62.2652C83.3972 61.368 82.4968 59.61 82.0105 58.7252C80.6917 56.3263 79.545 52.4508 80.0044 49.6921Z" fill="var(--fill-0, #F38C61)"/>
<path id="Vector_49" d="M36.3257 51.4092C39.2245 51.483 40.6171 53.5513 41.5652 55.9785C40.8297 56.5087 40.3893 56.8488 39.7004 57.4479C40.1572 58.2444 40.8147 59.1628 41.0319 59.9809L40.8527 60.1753C40.3543 60.1414 40.0789 59.8946 39.6523 59.6189C38.3785 57.9353 38.6745 56.8696 40.2791 55.6689C37.1176 50.2938 35.6111 53.9115 34.6737 52.9639C34.8743 52.2449 35.7026 51.7303 36.3257 51.4092Z" fill="var(--fill-0, #F38C61)"/>
<path id="Vector_50" d="M291.55 8.88585C292.003 8.91768 292.776 9.08753 293.107 9.44436C293.352 9.70746 293.452 10.0071 293.402 10.3665C293.13 12.3092 284.785 17.3127 282.879 18.477C282.221 18.5351 281.735 18.3456 281.23 17.9294C281.125 17.6877 281.046 17.4918 281.089 17.2193C281.391 15.2865 289.673 10.1359 291.55 8.88585Z" fill="var(--fill-0, #755AC8)"/>
<path id="Vector_51" d="M279.476 0.930679C280.381 1.01326 281.864 1.72401 281.457 2.6796C280.51 4.91093 277.893 11.6628 276.347 13.1549C275.467 13.1843 274.049 12.5977 274.376 11.6657C275.13 9.51773 277.909 2.22645 279.476 0.930679Z" fill="var(--fill-0, #755AC8)"/>
<path id="Vector_52" d="M284.845 23.5947C285.269 23.5947 286.458 23.7184 287.041 23.8509C289.555 24.423 293.302 24.146 295.479 25.5175C296.57 26.2042 295.729 27.3329 294.942 27.9788C293.23 27.93 280.528 27.1141 284.845 23.5947Z" fill="var(--fill-0, #755AC8)"/>
<path id="Vector_53" d="M53.3615 168.124C55.4279 168.131 58.4869 168.228 60.4725 168.071C61.3163 168.126 62.018 168.168 62.8708 168.16L61.3503 168.499C62.1556 168.999 69.0818 168.692 70.5616 168.892C58.3896 168.971 46.2172 168.966 34.0452 168.881C37.3135 168.512 41.5604 169.05 44.9328 168.68C46.6825 168.488 48.6496 168.965 50.4051 168.36L50.2277 168.116L53.3615 168.124Z" fill="var(--fill-0, #D6D7E8)"/>
</g>
<defs>
<linearGradient id="paint0_linear_0_53" x1="104.264" y1="167.471" x2="104.228" y2="169.375" gradientUnits="userSpaceOnUse">
<stop stop-color="#CCCAD3"/>
<stop offset="1" stop-color="#EBEAE7"/>
</linearGradient>
</defs>
</svg>
